<svg xmlns="http://www.w3.org/2000/svg" width="1600" height="800" viewBox="0 0 1600 800">
<defs>
<radialGradient id="a" cx="30%" cy="35%" r="55%"><stop offset="0%" stop-color="#3a2a55" stop-opacity="0.85"/><stop offset="100%" stop-color="#0e0a14" stop-opacity="0"/></radialGradient>
<radialGradient id="b" cx="74%" cy="64%" r="52%"><stop offset="0%" stop-color="#6c4f93" stop-opacity="0.5"/><stop offset="100%" stop-color="#0e0a14" stop-opacity="0"/></radialGradient>
<linearGradient id="band" x1="0" y1="0" x2="1" y2="1"><stop offset="0%" stop-color="#1a1226" stop-opacity="0.6"/><stop offset="100%" stop-color="#0e0a14" stop-opacity="0"/></linearGradient>
</defs>
<rect width="1600" height="800" fill="#120d1b"/>
<rect width="1600" height="800" fill="url(#band)"/>
<rect width="1600" height="800" fill="url(#a)"/>
<rect width="1600" height="800" fill="url(#b)"/>
<rect x="854" y="486" width="122" height="91" fill="#c4a9e0" opacity="0.064"/><rect x="220" y="296" width="256" height="151" fill="#c4a9e0" opacity="0.096"/><rect x="1179" y="13" width="208" height="150" fill="#c4a9e0" opacity="0.096"/><rect x="1107" y="583" width="183" height="167" fill="#c4a9e0" opacity="0.073"/><rect x="293" y="34" width="164" height="60" fill="#c4a9e0" opacity="0.105"/><rect x="479" y="519" width="237" height="88" fill="#c4a9e0" opacity="0.107"/><rect x="1295" y="747" width="92" height="208" fill="#c4a9e0" opacity="0.067"/><circle cx="603.7" cy="539.8" r="1.35" fill="#c4a9e0" opacity="0.24"/><circle cx="1347.1" cy="172.1" r="1.92" fill="#e9e2d3" opacity="0.28"/><circle cx="1010.8" cy="46.5" r="1.32" fill="#a585cf" opacity="0.30"/><circle cx="1115.3" cy="116.6" r="0.80" fill="#c4a9e0" opacity="0.19"/><circle cx="1069.0" cy="485.7" r="1.48" fill="#e9e2d3" opacity="0.56"/><circle cx="852.0" cy="693.2" r="1.77" fill="#e9e2d3" opacity="0.32"/><circle cx="571.1" cy="696.5" r="1.09" fill="#ece5d6" opacity="0.77"/><circle cx="771.2" cy="294.8" r="0.55" fill="#c4a9e0" opacity="0.20"/><circle cx="119.2" cy="356.0" r="1.94" fill="#a585cf" opacity="0.81"/><circle cx="909.1" cy="243.4" r="1.99" fill="#ece5d6" opacity="0.75"/><circle cx="163.5" cy="742.7" r="0.44" fill="#ece5d6" opacity="0.50"/><circle cx="139.9" cy="76.0" r="1.16" fill="#e9e2d3" opacity="0.26"/><circle cx="1022.6" cy="727.5" r="0.88" fill="#e9e2d3" opacity="0.51"/><circle cx="238.8" cy="446.8" r="0.56" fill="#ece5d6" opacity="0.18"/><circle cx="802.2" cy="4.4" r="1.44" fill="#a585cf" opacity="0.65"/><circle cx="471.7" cy="442.1" r="1.14" fill="#c4a9e0" opacity="0.74"/><circle cx="510.9" cy="620.6" r="1.37" fill="#c4a9e0" opacity="0.80"/><circle cx="836.7" cy="21.8" r="1.00" fill="#ece5d6" opacity="0.13"/><circle cx="748.4" cy="654.2" r="1.31" fill="#e9e2d3" opacity="0.30"/><circle cx="427.2" cy="502.7" r="1.71" fill="#c4a9e0" opacity="0.55"/><circle cx="172.4" cy="760.5" r="1.53" fill="#e9e2d3" opacity="0.52"/><circle cx="1305.2" cy="705.7" r="1.87" fill="#a585cf" opacity="0.50"/><circle cx="378.0" cy="200.0" r="1.63" fill="#ece5d6" opacity="0.68"/><circle cx="293.2" cy="714.3" r="0.72" fill="#ece5d6" opacity="0.19"/><circle cx="85.2" cy="79.5" r="0.92" fill="#ece5d6" opacity="0.41"/><circle cx="172.0" cy="111.4" r="1.33" fill="#a585cf" opacity="0.77"/><circle cx="285.7" cy="31.7" r="0.74" fill="#c4a9e0" opacity="0.76"/><circle cx="1494.9" cy="216.2" r="0.46" fill="#a585cf" opacity="0.73"/><circle cx="991.6" cy="683.7" r="1.98" fill="#a585cf" opacity="0.13"/><circle cx="488.8" cy="221.3" r="1.77" fill="#a585cf" opacity="0.21"/><circle cx="1505.1" cy="381.1" r="0.71" fill="#a585cf" opacity="0.77"/><circle cx="1520.3" cy="312.9" r="0.85" fill="#ece5d6" opacity="0.59"/><circle cx="575.9" cy="228.0" r="1.76" fill="#ece5d6" opacity="0.55"/><circle cx="1032.1" cy="785.1" r="1.58" fill="#c4a9e0" opacity="0.47"/><circle cx="86.4" cy="685.3" r="1.52" fill="#c4a9e0" opacity="0.28"/><circle cx="1099.0" cy="782.9" r="1.91" fill="#c4a9e0" opacity="0.30"/><circle cx="1288.1" cy="14.8" r="0.98" fill="#a585cf" opacity="0.45"/><circle cx="32.8" cy="510.8" r="1.95" fill="#e9e2d3" opacity="0.63"/><circle cx="1498.7" cy="502.9" r="0.59" fill="#a585cf" opacity="0.36"/><circle cx="888.7" cy="779.4" r="0.48" fill="#c4a9e0" opacity="0.77"/><circle cx="641.6" cy="234.4" r="1.94" fill="#a585cf" opacity="0.80"/><circle cx="29.8" cy="326.6" r="1.32" fill="#c4a9e0" opacity="0.37"/><circle cx="1446.6" cy="369.8" r="1.62" fill="#a585cf" opacity="0.68"/><circle cx="1175.0" cy="158.9" r="0.76" fill="#e9e2d3" opacity="0.74"/><circle cx="65.3" cy="431.0" r="0.95" fill="#ece5d6" opacity="0.21"/><circle cx="1498.2" cy="373.0" r="0.46" fill="#a585cf" opacity="0.24"/><circle cx="1408.4" cy="644.9" r="0.59" fill="#c4a9e0" opacity="0.33"/><circle cx="545.2" cy="126.1" r="0.76" fill="#ece5d6" opacity="0.13"/><circle cx="1253.7" cy="685.9" r="0.92" fill="#a585cf" opacity="0.59"/><circle cx="1512.6" cy="187.5" r="1.06" fill="#e9e2d3" opacity="0.29"/><circle cx="700.6" cy="157.8" r="0.54" fill="#ece5d6" opacity="0.79"/><circle cx="986.7" cy="555.4" r="1.50" fill="#a585cf" opacity="0.27"/><circle cx="1376.3" cy="539.2" r="1.10" fill="#a585cf" opacity="0.40"/><circle cx="379.4" cy="231.7" r="1.04" fill="#ece5d6" opacity="0.12"/><circle cx="524.2" cy="35.8" r="0.30" fill="#ece5d6" opacity="0.76"/><circle cx="1553.9" cy="150.1" r="1.41" fill="#c4a9e0" opacity="0.41"/><circle cx="18.0" cy="115.1" r="0.43" fill="#e9e2d3" opacity="0.42"/><circle cx="476.1" cy="121.3" r="1.96" fill="#ece5d6" opacity="0.37"/><circle cx="1234.9" cy="629.7" r="1.58" fill="#e9e2d3" opacity="0.64"/><circle cx="1240.9" cy="57.1" r="1.72" fill="#ece5d6" opacity="0.77"/><circle cx="425.4" cy="286.7" r="0.35" fill="#c4a9e0" opacity="0.23"/><circle cx="157.2" cy="192.8" r="0.72" fill="#c4a9e0" opacity="0.48"/><circle cx="1357.2" cy="115.9" r="1.35" fill="#e9e2d3" opacity="0.17"/><circle cx="1101.7" cy="793.1" r="1.81" fill="#c4a9e0" opacity="0.50"/><circle cx="1443.1" cy="261.2" r="0.96" fill="#e9e2d3" opacity="0.54"/><circle cx="1343.1" cy="662.7" r="1.99" fill="#ece5d6" opacity="0.60"/><circle cx="444.4" cy="155.0" r="0.35" fill="#ece5d6" opacity="0.23"/><circle cx="1325.6" cy="376.4" r="0.40" fill="#a585cf" opacity="0.20"/><circle cx="431.8" cy="503.1" r="0.47" fill="#a585cf" opacity="0.28"/><circle cx="960.1" cy="313.5" r="1.86" fill="#c4a9e0" opacity="0.31"/><circle cx="61.5" cy="222.5" r="1.00" fill="#c4a9e0" opacity="0.47"/><circle cx="704.9" cy="544.1" r="1.62" fill="#e9e2d3" opacity="0.77"/><circle cx="77.5" cy="693.5" r="1.37" fill="#c4a9e0" opacity="0.51"/><circle cx="770.3" cy="666.6" r="0.76" fill="#a585cf" opacity="0.78"/><circle cx="1280.0" cy="14.0" r="0.96" fill="#e9e2d3" opacity="0.76"/><circle cx="25.9" cy="444.7" r="1.80" fill="#e9e2d3" opacity="0.81"/><circle cx="492.9" cy="72.1" r="1.89" fill="#e9e2d3" opacity="0.29"/><circle cx="1402.9" cy="756.2" r="1.44" fill="#c4a9e0" opacity="0.15"/><circle cx="1313.3" cy="205.4" r="0.59" fill="#c4a9e0" opacity="0.13"/><circle cx="1292.2" cy="125.7" r="1.68" fill="#c4a9e0" opacity="0.81"/><circle cx="74.0" cy="323.0" r="1.12" fill="#a585cf" opacity="0.30"/><circle cx="1305.9" cy="756.5" r="0.75" fill="#c4a9e0" opacity="0.38"/><circle cx="1076.1" cy="80.9" r="0.88" fill="#ece5d6" opacity="0.45"/><circle cx="1338.6" cy="725.3" r="1.92" fill="#ece5d6" opacity="0.45"/><circle cx="1220.0" cy="571.5" r="1.27" fill="#a585cf" opacity="0.67"/><circle cx="708.6" cy="436.9" r="0.68" fill="#c4a9e0" opacity="0.27"/><circle cx="392.1" cy="575.4" r="0.86" fill="#ece5d6" opacity="0.62"/><circle cx="12.6" cy="73.2" r="1.03" fill="#c4a9e0" opacity="0.59"/><circle cx="622.4" cy="722.1" r="1.95" fill="#c4a9e0" opacity="0.44"/><circle cx="771.1" cy="183.0" r="1.89" fill="#c4a9e0" opacity="0.41"/><circle cx="30.0" cy="245.3" r="1.46" fill="#e9e2d3" opacity="0.67"/><circle cx="15.4" cy="212.8" r="1.66" fill="#e9e2d3" opacity="0.78"/><circle cx="1280.5" cy="59.3" r="0.67" fill="#a585cf" opacity="0.77"/><circle cx="1236.7" cy="516.9" r="0.70" fill="#c4a9e0" opacity="0.44"/><circle cx="823.8" cy="600.3" r="0.81" fill="#ece5d6" opacity="0.36"/><circle cx="373.3" cy="194.6" r="0.43" fill="#c4a9e0" opacity="0.37"/><circle cx="1454.7" cy="529.3" r="1.17" fill="#c4a9e0" opacity="0.55"/><circle cx="414.2" cy="772.8" r="1.21" fill="#ece5d6" opacity="0.60"/><circle cx="10.0" cy="679.2" r="0.88" fill="#e9e2d3" opacity="0.16"/><circle cx="695.2" cy="16.2" r="1.74" fill="#ece5d6" opacity="0.57"/><circle cx="891.4" cy="324.1" r="1.19" fill="#e9e2d3" opacity="0.14"/><circle cx="1528.4" cy="419.6" r="1.48" fill="#e9e2d3" opacity="0.74"/><circle cx="1543.8" cy="314.1" r="1.52" fill="#a585cf" opacity="0.61"/><circle cx="1548.5" cy="216.0" r="1.19" fill="#e9e2d3" opacity="0.52"/><circle cx="979.7" cy="526.8" r="0.76" fill="#e9e2d3" opacity="0.79"/><circle cx="944.5" cy="448.0" r="0.31" fill="#a585cf" opacity="0.14"/><circle cx="1486.6" cy="58.5" r="0.58" fill="#c4a9e0" opacity="0.49"/><circle cx="62.4" cy="13.2" r="1.62" fill="#c4a9e0" opacity="0.34"/><circle cx="604.8" cy="149.9" r="1.03" fill="#c4a9e0" opacity="0.39"/><circle cx="1509.7" cy="432.5" r="0.37" fill="#e9e2d3" opacity="0.28"/><circle cx="23.9" cy="707.7" r="1.92" fill="#c4a9e0" opacity="0.61"/><circle cx="1404.5" cy="298.4" r="1.16" fill="#c4a9e0" opacity="0.79"/><circle cx="1364.3" cy="525.9" r="0.76" fill="#c4a9e0" opacity="0.16"/><circle cx="258.8" cy="713.4" r="0.38" fill="#e9e2d3" opacity="0.74"/><circle cx="1410.8" cy="241.3" r="0.51" fill="#ece5d6" opacity="0.74"/><circle cx="14.3" cy="740.6" r="1.25" fill="#e9e2d3" opacity="0.16"/><circle cx="752.8" cy="456.3" r="1.07" fill="#e9e2d3" opacity="0.78"/><circle cx="934.6" cy="191.4" r="0.98" fill="#c4a9e0" opacity="0.35"/><circle cx="464.2" cy="85.7" r="0.55" fill="#c4a9e0" opacity="0.36"/><circle cx="89.5" cy="229.3" r="1.56" fill="#e9e2d3" opacity="0.54"/><circle cx="700.6" cy="397.5" r="1.34" fill="#c4a9e0" opacity="0.79"/><circle cx="279.6" cy="503.4" r="1.54" fill="#ece5d6" opacity="0.60"/><circle cx="621.1" cy="550.5" r="0.66" fill="#c4a9e0" opacity="0.28"/><circle cx="433.0" cy="661.2" r="0.82" fill="#e9e2d3" opacity="0.24"/><circle cx="253.1" cy="565.3" r="1.79" fill="#ece5d6" opacity="0.70"/><circle cx="1582.3" cy="702.0" r="1.84" fill="#ece5d6" opacity="0.16"/><circle cx="836.8" cy="268.2" r="0.99" fill="#ece5d6" opacity="0.45"/><circle cx="191.8" cy="340.7" r="0.35" fill="#c4a9e0" opacity="0.33"/><circle cx="763.3" cy="744.4" r="1.53" fill="#ece5d6" opacity="0.40"/><circle cx="1515.2" cy="626.9" r="1.14" fill="#e9e2d3" opacity="0.43"/><circle cx="987.5" cy="475.5" r="1.43" fill="#c4a9e0" opacity="0.20"/><circle cx="309.8" cy="40.9" r="0.54" fill="#e9e2d3" opacity="0.74"/><circle cx="314.2" cy="795.7" r="0.39" fill="#ece5d6" opacity="0.71"/><circle cx="358.3" cy="23.9" r="0.49" fill="#a585cf" opacity="0.24"/><circle cx="656.5" cy="435.1" r="1.50" fill="#e9e2d3" opacity="0.35"/><circle cx="900.0" cy="40.2" r="0.97" fill="#a585cf" opacity="0.19"/><circle cx="794.4" cy="759.1" r="1.10" fill="#e9e2d3" opacity="0.31"/><circle cx="504.9" cy="334.8" r="1.52" fill="#a585cf" opacity="0.28"/><circle cx="1195.6" cy="226.7" r="1.86" fill="#ece5d6" opacity="0.70"/><circle cx="569.5" cy="216.5" r="1.71" fill="#ece5d6" opacity="0.48"/><circle cx="1537.7" cy="317.6" r="1.33" fill="#c4a9e0" opacity="0.81"/><circle cx="450.7" cy="242.6" r="0.77" fill="#e9e2d3" opacity="0.21"/><circle cx="1033.3" cy="564.9" r="0.70" fill="#ece5d6" opacity="0.59"/><circle cx="1137.0" cy="495.1" r="1.66" fill="#a585cf" opacity="0.52"/><circle cx="1245.0" cy="542.9" r="0.72" fill="#e9e2d3" opacity="0.69"/><circle cx="746.6" cy="563.8" r="0.86" fill="#e9e2d3" opacity="0.78"/><circle cx="1277.5" cy="102.6" r="0.48" fill="#e9e2d3" opacity="0.65"/><circle cx="137.9" cy="98.8" r="1.23" fill="#a585cf" opacity="0.21"/><circle cx="850.2" cy="33.6" r="0.78" fill="#a585cf" opacity="0.81"/><circle cx="1281.6" cy="207.0" r="1.25" fill="#ece5d6" opacity="0.40"/><circle cx="1292.7" cy="538.9" r="1.21" fill="#c4a9e0" opacity="0.61"/><circle cx="1410.4" cy="450.0" r="1.11" fill="#e9e2d3" opacity="0.55"/><circle cx="886.9" cy="455.3" r="0.73" fill="#a585cf" opacity="0.21"/><circle cx="913.5" cy="396.6" r="0.67" fill="#ece5d6" opacity="0.45"/><circle cx="109.2" cy="340.8" r="1.75" fill="#a585cf" opacity="0.28"/><circle cx="918.2" cy="224.6" r="0.93" fill="#c4a9e0" opacity="0.48"/><circle cx="1085.1" cy="527.7" r="1.30" fill="#c4a9e0" opacity="0.56"/><circle cx="1172.2" cy="248.7" r="1.21" fill="#a585cf" opacity="0.67"/><circle cx="787.8" cy="431.7" r="0.91" fill="#ece5d6" opacity="0.23"/><circle cx="745.4" cy="151.2" r="0.96" fill="#c4a9e0" opacity="0.76"/><circle cx="1059.9" cy="432.9" r="1.80" fill="#ece5d6" opacity="0.37"/><circle cx="1025.8" cy="102.9" r="0.63" fill="#a585cf" opacity="0.36"/><circle cx="368.9" cy="7.1" r="0.42" fill="#c4a9e0" opacity="0.20"/><circle cx="915.1" cy="372.1" r="1.97" fill="#c4a9e0" opacity="0.24"/><circle cx="1006.4" cy="160.9" r="0.52" fill="#ece5d6" opacity="0.56"/><circle cx="594.7" cy="292.4" r="0.77" fill="#a585cf" opacity="0.24"/><circle cx="1571.2" cy="504.2" r="0.39" fill="#c4a9e0" opacity="0.28"/><circle cx="606.5" cy="664.6" r="1.75" fill="#ece5d6" opacity="0.25"/><circle cx="1358.8" cy="695.5" r="1.46" fill="#a585cf" opacity="0.56"/><circle cx="71.9" cy="75.7" r="1.03" fill="#a585cf" opacity="0.19"/><circle cx="1541.8" cy="792.1" r="1.04" fill="#a585cf" opacity="0.21"/><circle cx="1086.1" cy="215.7" r="1.37" fill="#a585cf" opacity="0.24"/><circle cx="1274.5" cy="179.2" r="1.36" fill="#c4a9e0" opacity="0.33"/><circle cx="1365.5" cy="89.2" r="1.79" fill="#a585cf" opacity="0.71"/><circle cx="774.0" cy="207.8" r="0.77" fill="#c4a9e0" opacity="0.37"/><circle cx="995.3" cy="203.3" r="0.48" fill="#ece5d6" opacity="0.78"/><circle cx="567.2" cy="21.4" r="0.91" fill="#a585cf" opacity="0.64"/><circle cx="606.9" cy="633.4" r="1.88" fill="#a585cf" opacity="0.34"/><circle cx="1156.6" cy="78.6" r="1.45" fill="#a585cf" opacity="0.75"/><circle cx="91.5" cy="184.3" r="0.42" fill="#ece5d6" opacity="0.81"/><circle cx="593.7" cy="438.2" r="0.96" fill="#ece5d6" opacity="0.36"/><circle cx="831.4" cy="431.4" r="0.73" fill="#a585cf" opacity="0.42"/><circle cx="941.0" cy="267.7" r="0.47" fill="#c4a9e0" opacity="0.43"/><circle cx="476.3" cy="684.4" r="1.75" fill="#e9e2d3" opacity="0.51"/><circle cx="195.0" cy="456.6" r="0.81" fill="#e9e2d3" opacity="0.51"/><circle cx="502.9" cy="281.6" r="1.52" fill="#c4a9e0" opacity="0.34"/><circle cx="1523.5" cy="671.6" r="1.23" fill="#c4a9e0" opacity="0.25"/><circle cx="1342.2" cy="529.7" r="1.23" fill="#ece5d6" opacity="0.51"/><circle cx="1438.3" cy="618.8" r="1.51" fill="#a585cf" opacity="0.19"/><circle cx="435.8" cy="400.9" r="0.43" fill="#e9e2d3" opacity="0.31"/><circle cx="611.3" cy="58.8" r="1.02" fill="#e9e2d3" opacity="0.55"/><circle cx="1340.3" cy="600.1" r="1.89" fill="#c4a9e0" opacity="0.61"/><circle cx="641.8" cy="475.0" r="1.69" fill="#a585cf" opacity="0.17"/><circle cx="638.4" cy="328.8" r="0.90" fill="#ece5d6" opacity="0.63"/><circle cx="10.5" cy="93.1" r="1.41" fill="#e9e2d3" opacity="0.63"/><circle cx="1161.7" cy="141.3" r="1.78" fill="#c4a9e0" opacity="0.55"/><circle cx="401.8" cy="798.7" r="0.59" fill="#c4a9e0" opacity="0.40"/><circle cx="410.9" cy="19.9" r="0.91" fill="#e9e2d3" opacity="0.33"/><circle cx="582.4" cy="241.3" r="1.35" fill="#a585cf" opacity="0.47"/><circle cx="164.1" cy="134.9" r="1.13" fill="#e9e2d3" opacity="0.22"/><circle cx="510.7" cy="796.1" r="1.96" fill="#ece5d6" opacity="0.51"/><circle cx="267.3" cy="591.5" r="1.21" fill="#c4a9e0" opacity="0.57"/><circle cx="1514.1" cy="756.4" r="1.55" fill="#e9e2d3" opacity="0.52"/><circle cx="894.1" cy="790.7" r="1.87" fill="#a585cf" opacity="0.48"/><circle cx="1527.5" cy="130.8" r="1.78" fill="#a585cf" opacity="0.48"/><circle cx="1233.1" cy="506.1" r="1.84" fill="#c4a9e0" opacity="0.44"/><circle cx="712.9" cy="133.1" r="1.58" fill="#a585cf" opacity="0.26"/><circle cx="1497.1" cy="348.6" r="1.56" fill="#ece5d6" opacity="0.44"/><circle cx="1087.7" cy="706.8" r="1.25" fill="#ece5d6" opacity="0.57"/><circle cx="1317.1" cy="6.8" r="1.81" fill="#ece5d6" opacity="0.50"/><circle cx="1318.9" cy="83.0" r="0.47" fill="#a585cf" opacity="0.76"/><circle cx="882.1" cy="615.6" r="1.19" fill="#c4a9e0" opacity="0.46"/><circle cx="1237.2" cy="282.1" r="0.91" fill="#ece5d6" opacity="0.16"/><circle cx="666.8" cy="389.9" r="0.64" fill="#a585cf" opacity="0.47"/><circle cx="854.3" cy="387.0" r="1.21" fill="#a585cf" opacity="0.81"/><circle cx="771.2" cy="408.9" r="0.95" fill="#c4a9e0" opacity="0.29"/><circle cx="1190.8" cy="146.5" r="1.17" fill="#ece5d6" opacity="0.13"/><circle cx="278.4" cy="438.3" r="1.71" fill="#e9e2d3" opacity="0.33"/><circle cx="1005.1" cy="150.4" r="0.65" fill="#c4a9e0" opacity="0.33"/><circle cx="18.9" cy="80.9" r="1.14" fill="#ece5d6" opacity="0.40"/><circle cx="1320.8" cy="433.9" r="1.39" fill="#a585cf" opacity="0.23"/><circle cx="314.7" cy="798.8" r="0.39" fill="#a585cf" opacity="0.23"/><circle cx="1317.7" cy="760.9" r="1.85" fill="#ece5d6" opacity="0.51"/><circle cx="1190.9" cy="49.0" r="0.48" fill="#ece5d6" opacity="0.51"/><circle cx="1589.6" cy="502.1" r="1.81" fill="#e9e2d3" opacity="0.33"/><circle cx="1167.6" cy="74.6" r="1.63" fill="#a585cf" opacity="0.67"/><circle cx="1357.6" cy="33.4" r="1.37" fill="#ece5d6" opacity="0.65"/><circle cx="754.6" cy="205.8" r="1.74" fill="#a585cf" opacity="0.64"/><circle cx="119.5" cy="388.1" r="1.69" fill="#a585cf" opacity="0.31"/><circle cx="195.2" cy="139.8" r="0.53" fill="#ece5d6" opacity="0.20"/><circle cx="291.8" cy="603.5" r="1.11" fill="#e9e2d3" opacity="0.64"/><circle cx="39.9" cy="510.7" r="0.55" fill="#e9e2d3" opacity="0.34"/><circle cx="779.0" cy="656.1" r="1.29" fill="#a585cf" opacity="0.77"/><circle cx="1431.5" cy="371.9" r="1.84" fill="#a585cf" opacity="0.80"/><circle cx="27.5" cy="207.7" r="0.46" fill="#ece5d6" opacity="0.58"/><circle cx="1016.9" cy="176.8" r="1.93" fill="#c4a9e0" opacity="0.22"/><circle cx="1439.3" cy="109.8" r="1.76" fill="#ece5d6" opacity="0.37"/><circle cx="506.3" cy="298.4" r="0.68" fill="#ece5d6" opacity="0.42"/><circle cx="223.8" cy="687.6" r="0.46" fill="#c4a9e0" opacity="0.82"/><circle cx="668.5" cy="701.7" r="0.44" fill="#ece5d6" opacity="0.47"/><circle cx="136.3" cy="206.2" r="0.73" fill="#c4a9e0" opacity="0.58"/><circle cx="225.6" cy="433.4" r="0.72" fill="#ece5d6" opacity="0.75"/><circle cx="850.0" cy="520.4" r="1.05" fill="#ece5d6" opacity="0.17"/><circle cx="675.7" cy="232.2" r="0.79" fill="#e9e2d3" opacity="0.19"/><circle cx="1106.4" cy="234.7" r="0.38" fill="#e9e2d3" opacity="0.25"/><circle cx="1126.8" cy="51.1" r="0.87" fill="#ece5d6" opacity="0.24"/><circle cx="457.7" cy="128.5" r="1.65" fill="#c4a9e0" opacity="0.80"/><circle cx="820.9" cy="603.1" r="1.19" fill="#a585cf" opacity="0.51"/><circle cx="497.0" cy="337.4" r="1.77" fill="#a585cf" opacity="0.22"/><circle cx="1.6" cy="546.5" r="1.22" fill="#a585cf" opacity="0.26"/><circle cx="976.7" cy="292.6" r="0.37" fill="#c4a9e0" opacity="0.41"/><circle cx="1504.9" cy="45.3" r="1.48" fill="#ece5d6" opacity="0.71"/><circle cx="219.8" cy="136.8" r="0.56" fill="#c4a9e0" opacity="0.35"/><circle cx="1427.7" cy="612.3" r="0.95" fill="#c4a9e0" opacity="0.26"/><circle cx="889.3" cy="412.5" r="0.37" fill="#a585cf" opacity="0.15"/><circle cx="6.7" cy="148.0" r="1.08" fill="#a585cf" opacity="0.50"/><circle cx="1375.4" cy="197.2" r="0.67" fill="#e9e2d3" opacity="0.24"/><circle cx="1061.8" cy="381.0" r="0.34" fill="#ece5d6" opacity="0.55"/><circle cx="1284.6" cy="245.4" r="0.31" fill="#c4a9e0" opacity="0.72"/><circle cx="855.2" cy="433.5" r="0.91" fill="#c4a9e0" opacity="0.22"/><circle cx="1318.0" cy="703.4" r="0.70" fill="#a585cf" opacity="0.78"/><circle cx="1175.0" cy="522.2" r="1.24" fill="#c4a9e0" opacity="0.61"/><circle cx="877.0" cy="673.2" r="0.80" fill="#c4a9e0" opacity="0.76"/><circle cx="1357.2" cy="15.4" r="1.51" fill="#a585cf" opacity="0.22"/><circle cx="601.4" cy="602.1" r="0.70" fill="#a585cf" opacity="0.41"/><circle cx="43.8" cy="754.3" r="1.87" fill="#a585cf" opacity="0.67"/><circle cx="880.6" cy="366.3" r="0.96" fill="#ece5d6" opacity="0.44"/><circle cx="52.4" cy="165.8" r="1.72" fill="#a585cf" opacity="0.81"/><circle cx="1386.6" cy="327.9" r="0.69" fill="#a585cf" opacity="0.67"/><circle cx="895.4" cy="353.6" r="1.78" fill="#c4a9e0" opacity="0.62"/><circle cx="1001.3" cy="685.4" r="1.71" fill="#a585cf" opacity="0.24"/><circle cx="220.1" cy="270.3" r="1.06" fill="#a585cf" opacity="0.65"/><circle cx="1465.6" cy="246.7" r="0.39" fill="#c4a9e0" opacity="0.65"/><circle cx="1574.4" cy="261.4" r="1.59" fill="#ece5d6" opacity="0.79"/><circle cx="951.8" cy="306.3" r="1.03" fill="#e9e2d3" opacity="0.74"/><circle cx="138.4" cy="12.1" r="0.39" fill="#ece5d6" opacity="0.29"/><circle cx="477.8" cy="613.2" r="0.86" fill="#c4a9e0" opacity="0.64"/><circle cx="1345.7" cy="772.2" r="1.61" fill="#c4a9e0" opacity="0.47"/><circle cx="192.9" cy="258.0" r="1.57" fill="#e9e2d3" opacity="0.23"/><circle cx="145.6" cy="532.3" r="1.33" fill="#ece5d6" opacity="0.50"/><circle cx="1511.4" cy="293.6" r="0.46" fill="#e9e2d3" opacity="0.74"/><circle cx="563.3" cy="234.4" r="1.69" fill="#c4a9e0" opacity="0.69"/><circle cx="801.1" cy="336.6" r="0.79" fill="#ece5d6" opacity="0.13"/><circle cx="206.2" cy="142.6" r="1.83" fill="#a585cf" opacity="0.55"/><circle cx="705.3" cy="435.4" r="0.61" fill="#c4a9e0" opacity="0.34"/><circle cx="377.4" cy="591.3" r="1.49" fill="#c4a9e0" opacity="0.64"/><circle cx="1459.1" cy="421.9" r="1.14" fill="#a585cf" opacity="0.74"/><circle cx="354.2" cy="749.8" r="0.33" fill="#c4a9e0" opacity="0.53"/><circle cx="276.3" cy="453.2" r="0.62" fill="#c4a9e0" opacity="0.79"/><circle cx="555.2" cy="741.5" r="0.92" fill="#a585cf" opacity="0.80"/><circle cx="1084.4" cy="319.3" r="0.56" fill="#ece5d6" opacity="0.73"/><circle cx="961.4" cy="11.8" r="0.67" fill="#c4a9e0" opacity="0.22"/><circle cx="597.3" cy="45.6" r="0.67" fill="#e9e2d3" opacity="0.26"/><circle cx="153.2" cy="324.5" r="1.35" fill="#a585cf" opacity="0.32"/><circle cx="36.7" cy="271.2" r="0.52" fill="#ece5d6" opacity="0.81"/><circle cx="260.4" cy="567.5" r="0.63" fill="#a585cf" opacity="0.77"/><circle cx="1230.4" cy="244.3" r="1.85" fill="#ece5d6" opacity="0.69"/><circle cx="290.2" cy="332.7" r="1.08" fill="#ece5d6" opacity="0.28"/><circle cx="846.1" cy="527.6" r="1.35" fill="#c4a9e0" opacity="0.16"/><circle cx="1136.6" cy="450.8" r="1.16" fill="#ece5d6" opacity="0.71"/><circle cx="131.9" cy="371.7" r="0.98" fill="#a585cf" opacity="0.18"/><circle cx="1236.8" cy="498.7" r="1.14" fill="#a585cf" opacity="0.43"/><circle cx="843.8" cy="788.4" r="1.58" fill="#ece5d6" opacity="0.74"/><circle cx="66.5" cy="92.7" r="1.00" fill="#a585cf" opacity="0.15"/><circle cx="933.9" cy="716.1" r="0.86" fill="#e9e2d3" opacity="0.47"/><circle cx="1506.0" cy="124.3" r="1.85" fill="#e9e2d3" opacity="0.81"/><circle cx="399.4" cy="289.7" r="1.26" fill="#a585cf" opacity="0.13"/><circle cx="817.0" cy="692.0" r="1.37" fill="#ece5d6" opacity="0.26"/><circle cx="729.8" cy="490.3" r="0.36" fill="#a585cf" opacity="0.38"/><circle cx="1287.9" cy="124.6" r="1.36" fill="#ece5d6" opacity="0.65"/><circle cx="1520.4" cy="599.9" r="0.39" fill="#c4a9e0" opacity="0.33"/><circle cx="627.3" cy="234.6" r="0.37" fill="#e9e2d3" opacity="0.78"/><circle cx="665.2" cy="761.6" r="1.35" fill="#ece5d6" opacity="0.49"/><circle cx="157.6" cy="729.6" r="1.92" fill="#c4a9e0" opacity="0.78"/><circle cx="207.6" cy="346.6" r="0.88" fill="#e9e2d3" opacity="0.31"/><circle cx="550.1" cy="396.8" r="0.61" fill="#ece5d6" opacity="0.34"/><circle cx="1061.5" cy="164.6" r="0.69" fill="#a585cf" opacity="0.76"/><circle cx="1011.1" cy="549.7" r="0.76" fill="#e9e2d3" opacity="0.49"/><circle cx="1452.1" cy="568.4" r="1.08" fill="#e9e2d3" opacity="0.54"/><circle cx="1400.7" cy="367.1" r="0.57" fill="#c4a9e0" opacity="0.69"/><circle cx="295.1" cy="787.4" r="1.15" fill="#c4a9e0" opacity="0.29"/><circle cx="614.1" cy="516.8" r="1.29" fill="#a585cf" opacity="0.51"/><circle cx="549.1" cy="431.2" r="1.83" fill="#a585cf" opacity="0.43"/><circle cx="425.7" cy="615.9" r="1.36" fill="#ece5d6" opacity="0.24"/><circle cx="1439.8" cy="646.6" r="1.88" fill="#a585cf" opacity="0.44"/><circle cx="1286.3" cy="485.4" r="1.96" fill="#e9e2d3" opacity="0.60"/><circle cx="1151.2" cy="379.4" r="1.18" fill="#e9e2d3" opacity="0.79"/><circle cx="581.8" cy="26.9" r="1.74" fill="#a585cf" opacity="0.17"/><circle cx="1178.7" cy="5.2" r="1.53" fill="#e9e2d3" opacity="0.54"/><circle cx="530.7" cy="404.1" r="1.16" fill="#c4a9e0" opacity="0.78"/><circle cx="765.4" cy="784.3" r="0.76" fill="#e9e2d3" opacity="0.60"/><circle cx="99.8" cy="666.3" r="1.52" fill="#a585cf" opacity="0.35"/><circle cx="1158.2" cy="527.7" r="1.22" fill="#ece5d6" opacity="0.29"/><circle cx="790.5" cy="570.9" r="1.79" fill="#e9e2d3" opacity="0.31"/><circle cx="262.6" cy="247.3" r="0.45" fill="#a585cf" opacity="0.32"/><circle cx="1069.4" cy="571.2" r="0.39" fill="#e9e2d3" opacity="0.14"/><circle cx="858.8" cy="429.3" r="0.71" fill="#c4a9e0" opacity="0.51"/><circle cx="465.3" cy="588.5" r="1.65" fill="#a585cf" opacity="0.66"/><circle cx="748.3" cy="479.4" r="1.65" fill="#c4a9e0" opacity="0.46"/><circle cx="67.3" cy="4.4" r="1.59" fill="#ece5d6" opacity="0.39"/><circle cx="1151.5" cy="775.6" r="0.91" fill="#a585cf" opacity="0.58"/><circle cx="388.2" cy="745.0" r="0.67" fill="#c4a9e0" opacity="0.44"/><circle cx="510.4" cy="701.6" r="0.33" fill="#c4a9e0" opacity="0.33"/><circle cx="1361.3" cy="136.7" r="1.61" fill="#a585cf" opacity="0.31"/><circle cx="1011.0" cy="28.3" r="1.72" fill="#e9e2d3" opacity="0.69"/><circle cx="803.9" cy="536.4" r="0.33" fill="#ece5d6" opacity="0.19"/><circle cx="500.7" cy="44.2" r="0.45" fill="#ece5d6" opacity="0.78"/><circle cx="1312.6" cy="735.0" r="1.71" fill="#ece5d6" opacity="0.58"/><circle cx="1179.0" cy="64.5" r="0.42" fill="#a585cf" opacity="0.69"/><circle cx="1126.8" cy="535.2" r="1.64" fill="#c4a9e0" opacity="0.36"/><circle cx="663.2" cy="505.1" r="1.83" fill="#a585cf" opacity="0.73"/><circle cx="177.0" cy="542.2" r="1.19" fill="#ece5d6" opacity="0.47"/><circle cx="969.6" cy="480.9" r="1.25" fill="#a585cf" opacity="0.66"/><circle cx="543.3" cy="44.1" r="1.23" fill="#c4a9e0" opacity="0.33"/><circle cx="165.1" cy="335.1" r="0.37" fill="#a585cf" opacity="0.52"/><circle cx="677.5" cy="599.1" r="0.34" fill="#e9e2d3" opacity="0.27"/><circle cx="344.5" cy="557.6" r="1.28" fill="#a585cf" opacity="0.23"/><circle cx="623.1" cy="4.6" r="0.92" fill="#a585cf" opacity="0.63"/><circle cx="645.8" cy="296.9" r="0.68" fill="#ece5d6" opacity="0.80"/><circle cx="1008.2" cy="92.7" r="1.98" fill="#c4a9e0" opacity="0.71"/><circle cx="215.6" cy="108.6" r="0.61" fill="#a585cf" opacity="0.53"/><circle cx="1243.6" cy="197.1" r="0.31" fill="#c4a9e0" opacity="0.80"/><circle cx="184.7" cy="180.3" r="1.55" fill="#a585cf" opacity="0.62"/><circle cx="1413.8" cy="673.6" r="0.74" fill="#a585cf" opacity="0.16"/><circle cx="725.9" cy="750.5" r="1.37" fill="#ece5d6" opacity="0.22"/><circle cx="992.1" cy="28.5" r="1.20" fill="#a585cf" opacity="0.44"/><circle cx="1291.8" cy="246.9" r="0.81" fill="#a585cf" opacity="0.79"/><circle cx="1011.7" cy="674.2" r="1.97" fill="#e9e2d3" opacity="0.80"/><circle cx="1492.9" cy="226.9" r="1.22" fill="#ece5d6" opacity="0.48"/><circle cx="903.3" cy="599.0" r="1.91" fill="#ece5d6" opacity="0.57"/><circle cx="977.8" cy="93.4" r="0.95" fill="#a585cf" opacity="0.43"/><circle cx="187.3" cy="14.0" r="0.91" fill="#a585cf" opacity="0.17"/><circle cx="146.9" cy="323.5" r="1.69" fill="#ece5d6" opacity="0.74"/><circle cx="323.4" cy="481.1" r="0.54" fill="#ece5d6" opacity="0.43"/><circle cx="1082.0" cy="566.0" r="1.04" fill="#ece5d6" opacity="0.59"/><circle cx="775.4" cy="434.0" r="1.28" fill="#e9e2d3" opacity="0.15"/><circle cx="145.8" cy="122.9" r="0.82" fill="#e9e2d3" opacity="0.30"/><circle cx="1434.8" cy="182.3" r="0.50" fill="#a585cf" opacity="0.16"/><circle cx="1390.1" cy="476.3" r="1.17" fill="#e9e2d3" opacity="0.52"/><circle cx="272.2" cy="414.5" r="0.38" fill="#e9e2d3" opacity="0.64"/><circle cx="348.3" cy="158.2" r="0.39" fill="#e9e2d3" opacity="0.55"/><circle cx="566.5" cy="113.6" r="1.12" fill="#e9e2d3" opacity="0.35"/><circle cx="1044.6" cy="571.5" r="1.19" fill="#a585cf" opacity="0.38"/><circle cx="665.2" cy="701.2" r="1.33" fill="#e9e2d3" opacity="0.34"/><circle cx="119.9" cy="452.1" r="1.91" fill="#ece5d6" opacity="0.13"/><circle cx="264.6" cy="732.1" r="0.60" fill="#a585cf" opacity="0.80"/><circle cx="1066.3" cy="537.0" r="1.82" fill="#e9e2d3" opacity="0.37"/><circle cx="1187.6" cy="93.3" r="1.91" fill="#c4a9e0" opacity="0.48"/><circle cx="640.9" cy="65.4" r="1.69" fill="#ece5d6" opacity="0.32"/><circle cx="344.0" cy="98.6" r="1.86" fill="#e9e2d3" opacity="0.20"/><circle cx="910.6" cy="9.5" r="0.57" fill="#a585cf" opacity="0.37"/><circle cx="1039.4" cy="500.5" r="1.27" fill="#ece5d6" opacity="0.33"/><circle cx="835.3" cy="622.7" r="1.76" fill="#c4a9e0" opacity="0.41"/><circle cx="1197.4" cy="600.7" r="1.27" fill="#ece5d6" opacity="0.62"/><circle cx="1059.8" cy="648.6" r="1.85" fill="#e9e2d3" opacity="0.45"/><circle cx="973.4" cy="618.4" r="1.50" fill="#a585cf" opacity="0.40"/><circle cx="187.9" cy="548.3" r="1.73" fill="#e9e2d3" opacity="0.66"/><circle cx="1523.2" cy="785.6" r="1.41" fill="#ece5d6" opacity="0.81"/><circle cx="649.5" cy="443.3" r="1.81" fill="#a585cf" opacity="0.24"/><circle cx="1285.9" cy="636.2" r="0.63" fill="#c4a9e0" opacity="0.16"/><circle cx="409.7" cy="292.4" r="1.57" fill="#a585cf" opacity="0.21"/><circle cx="1061.3" cy="357.0" r="1.74" fill="#ece5d6" opacity="0.38"/><circle cx="1593.8" cy="441.5" r="0.91" fill="#c4a9e0" opacity="0.41"/><circle cx="1023.1" cy="448.0" r="1.48" fill="#e9e2d3" opacity="0.41"/><circle cx="224.7" cy="128.6" r="0.91" fill="#e9e2d3" opacity="0.20"/><circle cx="902.1" cy="653.6" r="1.38" fill="#c4a9e0" opacity="0.17"/><circle cx="1572.5" cy="475.5" r="0.47" fill="#e9e2d3" opacity="0.20"/><circle cx="169.0" cy="104.6" r="1.54" fill="#ece5d6" opacity="0.31"/><circle cx="273.9" cy="253.3" r="1.67" fill="#ece5d6" opacity="0.63"/><circle cx="1398.5" cy="604.8" r="1.82" fill="#c4a9e0" opacity="0.44"/><circle cx="1020.5" cy="408.8" r="0.50" fill="#ece5d6" opacity="0.74"/><circle cx="9.9" cy="741.6" r="0.44" fill="#c4a9e0" opacity="0.36"/><circle cx="1553.3" cy="558.9" r="0.87" fill="#c4a9e0" opacity="0.70"/><circle cx="573.2" cy="212.5" r="1.85" fill="#a585cf" opacity="0.76"/><circle cx="1470.6" cy="445.2" r="0.32" fill="#c4a9e0" opacity="0.40"/><circle cx="970.2" cy="387.6" r="1.16" fill="#c4a9e0" opacity="0.80"/><circle cx="432.0" cy="80.9" r="1.32" fill="#e9e2d3" opacity="0.16"/><circle cx="1285.0" cy="295.2" r="0.80" fill="#ece5d6" opacity="0.48"/><circle cx="1041.7" cy="326.3" r="1.29" fill="#a585cf" opacity="0.46"/><circle cx="1045.7" cy="262.8" r="0.41" fill="#ece5d6" opacity="0.74"/></svg>