<svg xmlns="http://www.w3.org/2000/svg" width="1600" height="1000" viewBox="0 0 1600 1000">
<defs>
<radialGradient id="neb1" cx="38%" cy="42%" r="55%">
  <stop offset="0%" stop-color="#3a2a55" stop-opacity="0.9"/>
  <stop offset="45%" stop-color="#231836" stop-opacity="0.55"/>
  <stop offset="100%" stop-color="#0e0a14" stop-opacity="0"/>
</radialGradient>
<radialGradient id="neb2" cx="70%" cy="60%" r="50%">
  <stop offset="0%" stop-color="#6c4f93" stop-opacity="0.5"/>
  <stop offset="50%" stop-color="#2a1d40" stop-opacity="0.3"/>
  <stop offset="100%" stop-color="#0e0a14" stop-opacity="0"/>
</radialGradient>
<radialGradient id="neb3" cx="20%" cy="78%" r="45%">
  <stop offset="0%" stop-color="#a585cf" stop-opacity="0.28"/>
  <stop offset="100%" stop-color="#0e0a14" stop-opacity="0"/>
</radialGradient>
</defs>
<rect width="1600" height="1000" fill="#0e0a14"/>
<rect width="1600" height="1000" fill="url(#neb1)"/>
<rect width="1600" height="1000" fill="url(#neb2)"/>
<rect width="1600" height="1000" fill="url(#neb3)"/>
<circle cx="295.1" cy="190.0" r="1.60" fill="#c4a9e0" opacity="0.60"/><circle cx="609.7" cy="526.6" r="1.18" fill="#e9e2d3" opacity="0.53"/><circle cx="1056.9" cy="190.7" r="1.03" fill="#ece5d6" opacity="0.43"/><circle cx="1277.0" cy="565.2" r="1.78" fill="#ece5d6" opacity="0.59"/><circle cx="318.7" cy="208.9" r="1.02" fill="#c4a9e0" opacity="0.35"/><circle cx="1170.6" cy="726.6" r="0.61" fill="#e9e2d3" opacity="0.24"/><circle cx="291.8" cy="744.5" r="0.62" fill="#ece5d6" opacity="0.71"/><circle cx="902.8" cy="436.0" r="0.92" fill="#ece5d6" opacity="0.34"/><circle cx="228.0" cy="252.5" r="0.82" fill="#c4a9e0" opacity="0.55"/><circle cx="913.7" cy="443.9" r="1.05" fill="#a585cf" opacity="0.75"/><circle cx="1096.9" cy="43.7" r="0.56" fill="#ece5d6" opacity="0.33"/><circle cx="208.4" cy="259.6" r="0.83" fill="#ece5d6" opacity="0.31"/><circle cx="253.1" cy="733.5" r="1.16" fill="#e9e2d3" opacity="0.52"/><circle cx="912.5" cy="53.4" r="0.58" fill="#a585cf" opacity="0.34"/><circle cx="358.7" cy="282.2" r="1.14" fill="#e9e2d3" opacity="0.57"/><circle cx="1197.3" cy="854.4" r="0.52" fill="#e9e2d3" opacity="0.76"/><circle cx="501.9" cy="395.7" r="1.54" fill="#a585cf" opacity="0.73"/><circle cx="1029.2" cy="582.6" r="1.08" fill="#ece5d6" opacity="0.39"/><circle cx="602.1" cy="634.2" r="1.74" fill="#e9e2d3" opacity="0.39"/><circle cx="297.1" cy="182.3" r="1.09" fill="#a585cf" opacity="0.72"/><circle cx="95.6" cy="31.0" r="1.08" fill="#e9e2d3" opacity="0.61"/><circle cx="1096.3" cy="368.4" r="1.42" fill="#c4a9e0" opacity="0.47"/><circle cx="1081.9" cy="106.0" r="1.46" fill="#ece5d6" opacity="0.19"/><circle cx="667.8" cy="688.6" r="1.26" fill="#ece5d6" opacity="0.56"/><circle cx="1107.9" cy="466.6" r="1.54" fill="#c4a9e0" opacity="0.33"/><circle cx="679.9" cy="881.9" r="0.48" fill="#c4a9e0" opacity="0.30"/><circle cx="1114.8" cy="893.2" r="0.93" fill="#c4a9e0" opacity="0.74"/><circle cx="605.8" cy="900.7" r="1.59" fill="#ece5d6" opacity="0.41"/><circle cx="816.7" cy="111.7" r="0.77" fill="#e9e2d3" opacity="0.64"/><circle cx="788.7" cy="89.2" r="1.24" fill="#ece5d6" opacity="0.37"/><circle cx="1293.1" cy="77.9" r="1.53" fill="#a585cf" opacity="0.36"/><circle cx="167.9" cy="219.8" r="0.66" fill="#c4a9e0" opacity="0.60"/><circle cx="1330.2" cy="287.0" r="1.63" fill="#ece5d6" opacity="0.74"/><circle cx="204.9" cy="765.9" r="1.57" fill="#e9e2d3" opacity="0.64"/><circle cx="806.9" cy="662.9" r="0.41" fill="#a585cf" opacity="0.76"/><circle cx="261.9" cy="307.9" r="0.33" fill="#ece5d6" opacity="0.49"/><circle cx="1028.8" cy="451.6" r="1.88" fill="#e9e2d3" opacity="0.41"/><circle cx="36.9" cy="879.4" r="0.61" fill="#c4a9e0" opacity="0.46"/><circle cx="1081.6" cy="58.9" r="0.74" fill="#c4a9e0" opacity="0.29"/><circle cx="1055.6" cy="952.9" r="1.00" fill="#c4a9e0" opacity="0.31"/><circle cx="1321.7" cy="484.1" r="1.69" fill="#c4a9e0" opacity="0.31"/><circle cx="1137.2" cy="280.4" r="1.14" fill="#a585cf" opacity="0.53"/><circle cx="584.2" cy="361.3" r="1.57" fill="#e9e2d3" opacity="0.84"/><circle cx="1210.7" cy="822.8" r="0.68" fill="#a585cf" opacity="0.38"/><circle cx="782.3" cy="345.8" r="1.81" fill="#e9e2d3" opacity="0.57"/><circle cx="76.0" cy="599.4" r="1.34" fill="#c4a9e0" opacity="0.77"/><circle cx="584.0" cy="943.5" r="0.65" fill="#e9e2d3" opacity="0.67"/><circle cx="641.1" cy="490.9" r="1.62" fill="#ece5d6" opacity="0.19"/><circle cx="1419.6" cy="991.8" r="1.27" fill="#c4a9e0" opacity="0.80"/><circle cx="1560.5" cy="163.3" r="0.84" fill="#c4a9e0" opacity="0.22"/><circle cx="872.6" cy="427.6" r="1.86" fill="#a585cf" opacity="0.44"/><circle cx="1126.2" cy="275.7" r="0.88" fill="#ece5d6" opacity="0.22"/><circle cx="31.3" cy="559.9" r="1.28" fill="#c4a9e0" opacity="0.45"/><circle cx="449.9" cy="267.1" r="1.29" fill="#a585cf" opacity="0.26"/><circle cx="1043.1" cy="503.7" r="0.37" fill="#e9e2d3" opacity="0.46"/><circle cx="1437.0" cy="311.9" r="1.89" fill="#c4a9e0" opacity="0.46"/><circle cx="240.0" cy="503.2" r="1.67" fill="#ece5d6" opacity="0.47"/><circle cx="945.9" cy="490.7" r="1.62" fill="#e9e2d3" opacity="0.30"/><circle cx="557.7" cy="157.0" r="1.15" fill="#ece5d6" opacity="0.71"/><circle cx="1600.0" cy="710.0" r="0.50" fill="#a585cf" opacity="0.60"/><circle cx="641.5" cy="138.3" r="0.39" fill="#ece5d6" opacity="0.48"/><circle cx="1282.8" cy="40.0" r="1.00" fill="#c4a9e0" opacity="0.18"/><circle cx="763.9" cy="356.9" r="1.66" fill="#a585cf" opacity="0.78"/><circle cx="1393.8" cy="491.8" r="0.90" fill="#ece5d6" opacity="0.52"/><circle cx="267.1" cy="837.2" r="0.96" fill="#a585cf" opacity="0.43"/><circle cx="478.4" cy="341.5" r="0.33" fill="#ece5d6" opacity="0.37"/><circle cx="642.7" cy="988.3" r="0.93" fill="#a585cf" opacity="0.24"/><circle cx="1158.9" cy="676.1" r="0.96" fill="#a585cf" opacity="0.33"/><circle cx="1015.3" cy="59.2" r="0.59" fill="#e9e2d3" opacity="0.19"/><circle cx="1278.5" cy="566.8" r="0.68" fill="#c4a9e0" opacity="0.67"/><circle cx="738.0" cy="482.7" r="0.87" fill="#e9e2d3" opacity="0.27"/><circle cx="1367.5" cy="139.7" r="0.86" fill="#ece5d6" opacity="0.57"/><circle cx="566.5" cy="67.1" r="0.68" fill="#a585cf" opacity="0.81"/><circle cx="507.3" cy="418.7" r="1.04" fill="#ece5d6" opacity="0.32"/><circle cx="547.8" cy="312.6" r="1.42" fill="#e9e2d3" opacity="0.32"/><circle cx="546.9" cy="605.1" r="1.01" fill="#ece5d6" opacity="0.75"/><circle cx="884.1" cy="665.5" r="0.44" fill="#a585cf" opacity="0.79"/><circle cx="578.4" cy="91.2" r="1.20" fill="#e9e2d3" opacity="0.38"/><circle cx="1231.5" cy="653.5" r="1.66" fill="#c4a9e0" opacity="0.39"/><circle cx="697.4" cy="16.8" r="1.42" fill="#a585cf" opacity="0.75"/><circle cx="187.9" cy="649.4" r="1.83" fill="#e9e2d3" opacity="0.21"/><circle cx="620.9" cy="740.6" r="1.58" fill="#c4a9e0" opacity="0.36"/><circle cx="1222.5" cy="786.7" r="0.98" fill="#e9e2d3" opacity="0.82"/><circle cx="1495.7" cy="40.2" r="1.87" fill="#ece5d6" opacity="0.56"/><circle cx="728.8" cy="956.4" r="1.68" fill="#a585cf" opacity="0.80"/><circle cx="1185.1" cy="128.6" r="1.75" fill="#ece5d6" opacity="0.61"/><circle cx="324.5" cy="704.3" r="0.34" fill="#ece5d6" opacity="0.31"/><circle cx="967.0" cy="391.1" r="0.59" fill="#ece5d6" opacity="0.74"/><circle cx="422.0" cy="34.4" r="1.58" fill="#e9e2d3" opacity="0.22"/><circle cx="284.7" cy="213.1" r="1.60" fill="#ece5d6" opacity="0.58"/><circle cx="1346.1" cy="50.1" r="1.37" fill="#c4a9e0" opacity="0.42"/><circle cx="1558.8" cy="923.4" r="1.39" fill="#a585cf" opacity="0.38"/><circle cx="1464.4" cy="180.6" r="1.27" fill="#a585cf" opacity="0.25"/><circle cx="714.6" cy="472.4" r="0.48" fill="#c4a9e0" opacity="0.64"/><circle cx="57.5" cy="48.2" r="1.20" fill="#a585cf" opacity="0.29"/><circle cx="482.2" cy="323.7" r="1.63" fill="#e9e2d3" opacity="0.68"/><circle cx="1599.4" cy="798.7" r="1.12" fill="#a585cf" opacity="0.24"/><circle cx="147.6" cy="101.5" r="1.31" fill="#e9e2d3" opacity="0.33"/><circle cx="422.6" cy="103.2" r="1.40" fill="#ece5d6" opacity="0.80"/><circle cx="940.1" cy="679.8" r="1.39" fill="#e9e2d3" opacity="0.22"/><circle cx="555.1" cy="435.6" r="1.43" fill="#ece5d6" opacity="0.35"/><circle cx="1250.3" cy="869.2" r="1.77" fill="#ece5d6" opacity="0.64"/><circle cx="243.6" cy="417.8" r="1.06" fill="#c4a9e0" opacity="0.66"/><circle cx="663.3" cy="422.2" r="1.28" fill="#a585cf" opacity="0.43"/><circle cx="1450.7" cy="56.3" r="1.35" fill="#e9e2d3" opacity="0.37"/><circle cx="998.8" cy="939.6" r="1.63" fill="#c4a9e0" opacity="0.45"/><circle cx="1375.6" cy="152.1" r="1.69" fill="#ece5d6" opacity="0.31"/><circle cx="792.9" cy="579.4" r="0.58" fill="#c4a9e0" opacity="0.82"/><circle cx="1319.8" cy="95.1" r="1.78" fill="#e9e2d3" opacity="0.21"/><circle cx="848.5" cy="932.3" r="1.64" fill="#c4a9e0" opacity="0.80"/><circle cx="61.5" cy="840.4" r="0.78" fill="#ece5d6" opacity="0.70"/><circle cx="1551.9" cy="427.6" r="1.67" fill="#a585cf" opacity="0.16"/><circle cx="490.6" cy="227.0" r="0.98" fill="#a585cf" opacity="0.76"/><circle cx="289.3" cy="120.9" r="1.02" fill="#ece5d6" opacity="0.65"/><circle cx="441.2" cy="264.2" r="0.30" fill="#c4a9e0" opacity="0.62"/><circle cx="5.9" cy="521.2" r="0.53" fill="#c4a9e0" opacity="0.39"/><circle cx="429.0" cy="866.8" r="1.65" fill="#c4a9e0" opacity="0.30"/><circle cx="104.8" cy="961.9" r="1.10" fill="#c4a9e0" opacity="0.74"/><circle cx="873.4" cy="431.5" r="1.09" fill="#ece5d6" opacity="0.61"/><circle cx="1464.7" cy="25.9" r="0.77" fill="#a585cf" opacity="0.50"/><circle cx="1475.3" cy="928.4" r="0.46" fill="#a585cf" opacity="0.50"/><circle cx="132.1" cy="972.5" r="0.48" fill="#e9e2d3" opacity="0.56"/><circle cx="1557.3" cy="958.9" r="1.40" fill="#e9e2d3" opacity="0.27"/><circle cx="45.6" cy="182.2" r="0.42" fill="#c4a9e0" opacity="0.29"/><circle cx="571.1" cy="492.0" r="1.28" fill="#e9e2d3" opacity="0.29"/><circle cx="489.1" cy="684.7" r="1.14" fill="#ece5d6" opacity="0.62"/><circle cx="1138.7" cy="205.7" r="0.30" fill="#c4a9e0" opacity="0.19"/><circle cx="1045.7" cy="75.3" r="0.34" fill="#a585cf" opacity="0.67"/><circle cx="445.7" cy="430.0" r="1.31" fill="#a585cf" opacity="0.40"/><circle cx="193.4" cy="45.2" r="1.33" fill="#e9e2d3" opacity="0.44"/><circle cx="1496.8" cy="384.7" r="1.70" fill="#a585cf" opacity="0.57"/><circle cx="1176.9" cy="156.0" r="1.58" fill="#a585cf" opacity="0.70"/><circle cx="1238.4" cy="346.4" r="1.30" fill="#a585cf" opacity="0.66"/><circle cx="1368.3" cy="919.5" r="1.08" fill="#e9e2d3" opacity="0.50"/><circle cx="485.7" cy="867.4" r="1.37" fill="#e9e2d3" opacity="0.31"/><circle cx="1508.7" cy="811.2" r="0.83" fill="#e9e2d3" opacity="0.49"/><circle cx="1211.6" cy="473.6" r="1.15" fill="#c4a9e0" opacity="0.75"/><circle cx="1106.7" cy="13.6" r="0.65" fill="#ece5d6" opacity="0.57"/><circle cx="780.7" cy="19.5" r="1.47" fill="#e9e2d3" opacity="0.69"/><circle cx="1223.0" cy="169.7" r="0.75" fill="#ece5d6" opacity="0.32"/><circle cx="950.1" cy="41.0" r="1.68" fill="#ece5d6" opacity="0.45"/><circle cx="585.8" cy="855.0" r="0.37" fill="#e9e2d3" opacity="0.52"/><circle cx="866.5" cy="182.6" r="1.14" fill="#ece5d6" opacity="0.82"/><circle cx="942.9" cy="225.5" r="0.50" fill="#c4a9e0" opacity="0.82"/><circle cx="429.0" cy="790.0" r="0.63" fill="#e9e2d3" opacity="0.68"/><circle cx="747.9" cy="685.8" r="1.28" fill="#c4a9e0" opacity="0.72"/><circle cx="1586.8" cy="845.5" r="0.74" fill="#c4a9e0" opacity="0.27"/><circle cx="1428.6" cy="825.1" r="1.29" fill="#e9e2d3" opacity="0.53"/><circle cx="1461.2" cy="142.4" r="1.69" fill="#a585cf" opacity="0.24"/><circle cx="1279.6" cy="969.3" r="1.89" fill="#ece5d6" opacity="0.76"/><circle cx="641.0" cy="761.2" r="0.77" fill="#e9e2d3" opacity="0.70"/><circle cx="447.8" cy="341.6" r="0.76" fill="#e9e2d3" opacity="0.44"/><circle cx="1136.1" cy="910.9" r="1.29" fill="#a585cf" opacity="0.85"/><circle cx="673.1" cy="381.6" r="0.84" fill="#c4a9e0" opacity="0.46"/><circle cx="471.8" cy="764.5" r="0.42" fill="#ece5d6" opacity="0.73"/><circle cx="1578.1" cy="58.4" r="0.37" fill="#ece5d6" opacity="0.54"/><circle cx="261.6" cy="64.6" r="0.68" fill="#a585cf" opacity="0.77"/><circle cx="624.5" cy="176.1" r="1.57" fill="#e9e2d3" opacity="0.28"/><circle cx="111.0" cy="459.0" r="1.11" fill="#ece5d6" opacity="0.64"/><circle cx="879.5" cy="622.7" r="0.56" fill="#c4a9e0" opacity="0.80"/><circle cx="1472.5" cy="367.6" r="0.98" fill="#e9e2d3" opacity="0.53"/><circle cx="430.7" cy="454.1" r="1.85" fill="#c4a9e0" opacity="0.62"/><circle cx="481.6" cy="388.7" r="0.80" fill="#e9e2d3" opacity="0.79"/><circle cx="1178.1" cy="448.2" r="0.94" fill="#c4a9e0" opacity="0.72"/><circle cx="1514.8" cy="411.2" r="1.68" fill="#a585cf" opacity="0.26"/><circle cx="774.6" cy="156.5" r="0.85" fill="#a585cf" opacity="0.67"/><circle cx="576.6" cy="845.0" r="1.45" fill="#ece5d6" opacity="0.60"/><circle cx="1427.2" cy="613.0" r="0.64" fill="#ece5d6" opacity="0.20"/><circle cx="915.4" cy="142.3" r="1.19" fill="#c4a9e0" opacity="0.54"/><circle cx="846.7" cy="697.9" r="1.02" fill="#e9e2d3" opacity="0.60"/><circle cx="568.1" cy="585.0" r="1.24" fill="#c4a9e0" opacity="0.58"/><circle cx="503.1" cy="351.0" r="1.81" fill="#ece5d6" opacity="0.49"/><circle cx="216.6" cy="572.3" r="1.63" fill="#a585cf" opacity="0.36"/><circle cx="1113.8" cy="821.2" r="0.79" fill="#c4a9e0" opacity="0.29"/><circle cx="1533.2" cy="842.5" r="0.69" fill="#e9e2d3" opacity="0.82"/><circle cx="769.6" cy="906.1" r="0.94" fill="#e9e2d3" opacity="0.68"/><circle cx="1418.3" cy="319.5" r="0.74" fill="#ece5d6" opacity="0.73"/><circle cx="1556.5" cy="350.3" r="1.62" fill="#c4a9e0" opacity="0.57"/><circle cx="1390.9" cy="37.4" r="1.01" fill="#ece5d6" opacity="0.59"/><circle cx="171.7" cy="732.1" r="0.52" fill="#c4a9e0" opacity="0.33"/><circle cx="962.2" cy="125.5" r="0.84" fill="#a585cf" opacity="0.19"/><circle cx="239.2" cy="981.5" r="1.66" fill="#c4a9e0" opacity="0.41"/><circle cx="1254.3" cy="795.7" r="0.77" fill="#a585cf" opacity="0.40"/><circle cx="281.4" cy="202.4" r="0.35" fill="#e9e2d3" opacity="0.41"/><circle cx="1490.8" cy="31.4" r="0.40" fill="#ece5d6" opacity="0.53"/><circle cx="851.0" cy="710.6" r="0.46" fill="#a585cf" opacity="0.34"/><circle cx="1225.7" cy="573.7" r="1.74" fill="#e9e2d3" opacity="0.64"/><circle cx="439.5" cy="688.1" r="0.40" fill="#a585cf" opacity="0.72"/><circle cx="382.3" cy="699.4" r="1.77" fill="#ece5d6" opacity="0.68"/><circle cx="1413.9" cy="136.2" r="1.61" fill="#a585cf" opacity="0.40"/><circle cx="1417.3" cy="185.2" r="0.90" fill="#ece5d6" opacity="0.43"/><circle cx="509.2" cy="71.9" r="0.57" fill="#e9e2d3" opacity="0.39"/><circle cx="22.1" cy="664.6" r="1.46" fill="#ece5d6" opacity="0.56"/><circle cx="1522.7" cy="373.2" r="0.34" fill="#ece5d6" opacity="0.28"/><circle cx="355.7" cy="273.9" r="0.55" fill="#e9e2d3" opacity="0.47"/><circle cx="1589.4" cy="12.7" r="0.57" fill="#ece5d6" opacity="0.25"/><circle cx="48.2" cy="66.5" r="0.32" fill="#c4a9e0" opacity="0.84"/><circle cx="995.2" cy="339.3" r="0.48" fill="#c4a9e0" opacity="0.40"/><circle cx="134.5" cy="295.9" r="1.15" fill="#a585cf" opacity="0.47"/><circle cx="1025.4" cy="135.0" r="0.89" fill="#ece5d6" opacity="0.76"/><circle cx="738.4" cy="283.2" r="1.74" fill="#c4a9e0" opacity="0.39"/><circle cx="929.6" cy="288.4" r="1.88" fill="#a585cf" opacity="0.45"/><circle cx="778.6" cy="460.5" r="0.78" fill="#e9e2d3" opacity="0.33"/><circle cx="622.6" cy="380.5" r="0.73" fill="#ece5d6" opacity="0.19"/><circle cx="1449.7" cy="400.0" r="1.50" fill="#c4a9e0" opacity="0.22"/><circle cx="1535.7" cy="217.5" r="1.86" fill="#e9e2d3" opacity="0.77"/><circle cx="24.9" cy="520.1" r="0.86" fill="#a585cf" opacity="0.43"/><circle cx="830.8" cy="914.1" r="0.60" fill="#ece5d6" opacity="0.25"/><circle cx="1209.6" cy="405.8" r="1.45" fill="#ece5d6" opacity="0.17"/><circle cx="1186.9" cy="890.3" r="0.93" fill="#e9e2d3" opacity="0.16"/><circle cx="162.2" cy="69.5" r="0.48" fill="#c4a9e0" opacity="0.59"/><circle cx="1484.9" cy="772.2" r="0.53" fill="#a585cf" opacity="0.49"/><circle cx="1117.8" cy="402.3" r="1.87" fill="#c4a9e0" opacity="0.80"/><circle cx="1023.7" cy="285.2" r="1.12" fill="#ece5d6" opacity="0.59"/><circle cx="610.8" cy="288.8" r="0.59" fill="#ece5d6" opacity="0.59"/><circle cx="1584.0" cy="930.3" r="0.73" fill="#ece5d6" opacity="0.53"/><circle cx="512.0" cy="185.0" r="1.33" fill="#e9e2d3" opacity="0.61"/><circle cx="221.3" cy="558.3" r="0.87" fill="#ece5d6" opacity="0.16"/><circle cx="1146.4" cy="727.7" r="1.49" fill="#ece5d6" opacity="0.30"/><circle cx="1059.7" cy="492.7" r="1.89" fill="#a585cf" opacity="0.44"/><circle cx="633.9" cy="568.3" r="0.39" fill="#ece5d6" opacity="0.69"/><circle cx="1490.7" cy="484.5" r="0.91" fill="#e9e2d3" opacity="0.30"/><circle cx="343.8" cy="102.8" r="0.50" fill="#e9e2d3" opacity="0.37"/><circle cx="932.0" cy="36.5" r="1.69" fill="#e9e2d3" opacity="0.45"/><circle cx="990.3" cy="131.6" r="1.18" fill="#c4a9e0" opacity="0.59"/><circle cx="683.4" cy="406.0" r="0.63" fill="#c4a9e0" opacity="0.43"/><circle cx="997.3" cy="275.4" r="1.75" fill="#e9e2d3" opacity="0.43"/><circle cx="1017.6" cy="819.1" r="1.48" fill="#a585cf" opacity="0.60"/><circle cx="1494.9" cy="561.2" r="1.90" fill="#a585cf" opacity="0.53"/><circle cx="1560.4" cy="491.2" r="1.57" fill="#c4a9e0" opacity="0.30"/><circle cx="1205.0" cy="887.1" r="0.36" fill="#ece5d6" opacity="0.33"/><circle cx="1111.8" cy="680.9" r="1.31" fill="#ece5d6" opacity="0.55"/><circle cx="45.3" cy="70.6" r="0.66" fill="#ece5d6" opacity="0.62"/><circle cx="1128.8" cy="607.4" r="1.79" fill="#c4a9e0" opacity="0.23"/><circle cx="608.3" cy="851.7" r="0.68" fill="#c4a9e0" opacity="0.63"/><circle cx="507.7" cy="634.7" r="0.54" fill="#ece5d6" opacity="0.44"/><circle cx="1566.0" cy="83.3" r="1.35" fill="#c4a9e0" opacity="0.46"/><circle cx="1482.9" cy="514.6" r="0.83" fill="#a585cf" opacity="0.72"/><circle cx="726.2" cy="204.7" r="1.21" fill="#a585cf" opacity="0.64"/><circle cx="1464.3" cy="563.0" r="1.36" fill="#a585cf" opacity="0.62"/><circle cx="1101.0" cy="652.4" r="0.64" fill="#c4a9e0" opacity="0.69"/><circle cx="924.6" cy="708.3" r="1.44" fill="#ece5d6" opacity="0.17"/><circle cx="338.5" cy="504.4" r="1.66" fill="#c4a9e0" opacity="0.82"/><circle cx="624.9" cy="965.3" r="1.89" fill="#e9e2d3" opacity="0.65"/><circle cx="445.2" cy="268.2" r="1.25" fill="#c4a9e0" opacity="0.47"/><circle cx="422.5" cy="463.9" r="0.70" fill="#ece5d6" opacity="0.76"/><circle cx="1147.6" cy="230.9" r="1.79" fill="#c4a9e0" opacity="0.40"/><circle cx="917.4" cy="877.7" r="1.63" fill="#c4a9e0" opacity="0.39"/><circle cx="909.1" cy="486.0" r="1.86" fill="#a585cf" opacity="0.15"/><circle cx="176.6" cy="252.8" r="1.22" fill="#ece5d6" opacity="0.84"/><circle cx="463.3" cy="340.7" r="0.71" fill="#a585cf" opacity="0.31"/><circle cx="936.0" cy="402.1" r="0.99" fill="#a585cf" opacity="0.57"/><circle cx="213.9" cy="203.5" r="1.19" fill="#ece5d6" opacity="0.20"/><circle cx="1457.9" cy="785.6" r="1.43" fill="#ece5d6" opacity="0.66"/><circle cx="1017.0" cy="10.2" r="0.43" fill="#a585cf" opacity="0.46"/><circle cx="1561.2" cy="751.5" r="0.40" fill="#ece5d6" opacity="0.27"/><circle cx="8.1" cy="74.7" r="0.97" fill="#ece5d6" opacity="0.53"/><circle cx="549.0" cy="188.4" r="0.94" fill="#c4a9e0" opacity="0.34"/><circle cx="86.8" cy="81.8" r="1.42" fill="#e9e2d3" opacity="0.52"/><circle cx="1482.4" cy="488.5" r="1.13" fill="#c4a9e0" opacity="0.48"/><circle cx="1105.8" cy="696.2" r="0.76" fill="#e9e2d3" opacity="0.33"/><circle cx="517.0" cy="549.2" r="1.00" fill="#c4a9e0" opacity="0.78"/><circle cx="594.9" cy="963.4" r="0.74" fill="#a585cf" opacity="0.41"/><circle cx="1516.1" cy="367.8" r="1.01" fill="#a585cf" opacity="0.72"/><circle cx="213.3" cy="95.0" r="0.97" fill="#a585cf" opacity="0.62"/><circle cx="1318.5" cy="62.1" r="0.33" fill="#c4a9e0" opacity="0.53"/><circle cx="808.0" cy="792.4" r="0.54" fill="#a585cf" opacity="0.67"/><circle cx="1068.5" cy="771.8" r="1.31" fill="#ece5d6" opacity="0.50"/><circle cx="98.3" cy="330.0" r="1.84" fill="#c4a9e0" opacity="0.20"/><circle cx="581.8" cy="395.8" r="0.84" fill="#a585cf" opacity="0.72"/><circle cx="606.2" cy="983.5" r="0.82" fill="#ece5d6" opacity="0.84"/><circle cx="588.2" cy="266.8" r="1.22" fill="#ece5d6" opacity="0.25"/><circle cx="609.3" cy="144.3" r="0.93" fill="#ece5d6" opacity="0.24"/><circle cx="794.9" cy="225.0" r="1.64" fill="#ece5d6" opacity="0.58"/><circle cx="1013.1" cy="170.2" r="1.79" fill="#a585cf" opacity="0.44"/><circle cx="1456.3" cy="42.4" r="0.46" fill="#e9e2d3" opacity="0.16"/><circle cx="139.0" cy="415.9" r="0.55" fill="#ece5d6" opacity="0.43"/><circle cx="572.2" cy="266.0" r="0.37" fill="#e9e2d3" opacity="0.49"/><circle cx="1087.6" cy="219.6" r="0.89" fill="#ece5d6" opacity="0.20"/><circle cx="407.0" cy="497.7" r="1.57" fill="#a585cf" opacity="0.20"/><circle cx="1298.3" cy="444.6" r="0.81" fill="#a585cf" opacity="0.77"/><circle cx="901.9" cy="238.3" r="1.05" fill="#c4a9e0" opacity="0.58"/><circle cx="242.7" cy="181.5" r="0.81" fill="#ece5d6" opacity="0.46"/><circle cx="742.6" cy="171.9" r="1.49" fill="#ece5d6" opacity="0.34"/><circle cx="1114.1" cy="862.1" r="0.82" fill="#e9e2d3" opacity="0.28"/><circle cx="546.6" cy="739.4" r="0.52" fill="#c4a9e0" opacity="0.45"/><circle cx="1056.3" cy="379.5" r="1.44" fill="#ece5d6" opacity="0.27"/><circle cx="1550.9" cy="694.1" r="0.75" fill="#ece5d6" opacity="0.58"/><circle cx="560.4" cy="432.5" r="1.25" fill="#e9e2d3" opacity="0.29"/><circle cx="386.1" cy="246.2" r="1.40" fill="#ece5d6" opacity="0.15"/><circle cx="14.7" cy="852.9" r="1.28" fill="#ece5d6" opacity="0.73"/><circle cx="467.5" cy="63.7" r="1.47" fill="#a585cf" opacity="0.31"/><circle cx="345.9" cy="445.9" r="0.67" fill="#e9e2d3" opacity="0.15"/><circle cx="1.3" cy="910.1" r="1.75" fill="#ece5d6" opacity="0.26"/><circle cx="786.8" cy="332.7" r="1.18" fill="#ece5d6" opacity="0.56"/><circle cx="94.4" cy="293.1" r="1.75" fill="#ece5d6" opacity="0.28"/><circle cx="1593.6" cy="668.9" r="1.21" fill="#ece5d6" opacity="0.68"/><circle cx="656.2" cy="630.8" r="0.76" fill="#e9e2d3" opacity="0.29"/><circle cx="0.2" cy="483.6" r="1.28" fill="#a585cf" opacity="0.50"/><circle cx="1244.1" cy="213.8" r="0.34" fill="#e9e2d3" opacity="0.60"/><circle cx="788.3" cy="111.0" r="0.57" fill="#c4a9e0" opacity="0.80"/><circle cx="253.8" cy="1.2" r="0.79" fill="#ece5d6" opacity="0.48"/><circle cx="201.7" cy="939.5" r="1.34" fill="#e9e2d3" opacity="0.20"/><circle cx="1546.7" cy="321.7" r="1.52" fill="#ece5d6" opacity="0.82"/><circle cx="1014.9" cy="9.9" r="1.45" fill="#e9e2d3" opacity="0.20"/><circle cx="912.0" cy="693.8" r="1.04" fill="#ece5d6" opacity="0.34"/><circle cx="719.7" cy="316.0" r="1.44" fill="#a585cf" opacity="0.64"/><circle cx="631.7" cy="141.9" r="0.33" fill="#ece5d6" opacity="0.44"/><circle cx="988.6" cy="712.6" r="1.42" fill="#ece5d6" opacity="0.28"/><circle cx="1103.4" cy="468.7" r="0.39" fill="#a585cf" opacity="0.21"/><circle cx="96.6" cy="402.9" r="0.89" fill="#a585cf" opacity="0.54"/><circle cx="197.3" cy="186.3" r="0.63" fill="#e9e2d3" opacity="0.75"/><circle cx="449.3" cy="710.6" r="0.66" fill="#a585cf" opacity="0.53"/><circle cx="1434.1" cy="400.5" r="1.18" fill="#e9e2d3" opacity="0.15"/><circle cx="937.8" cy="827.4" r="1.81" fill="#ece5d6" opacity="0.49"/><circle cx="1260.7" cy="679.1" r="0.44" fill="#a585cf" opacity="0.27"/><circle cx="308.1" cy="100.7" r="1.69" fill="#a585cf" opacity="0.15"/><circle cx="207.4" cy="444.9" r="0.49" fill="#c4a9e0" opacity="0.35"/><circle cx="216.0" cy="39.9" r="1.51" fill="#ece5d6" opacity="0.69"/><circle cx="1413.8" cy="683.4" r="1.58" fill="#c4a9e0" opacity="0.33"/><circle cx="388.4" cy="655.6" r="1.50" fill="#c4a9e0" opacity="0.16"/><circle cx="287.8" cy="887.4" r="1.82" fill="#a585cf" opacity="0.41"/><circle cx="1045.4" cy="827.6" r="1.87" fill="#e9e2d3" opacity="0.59"/><circle cx="535.9" cy="320.3" r="0.49" fill="#c4a9e0" opacity="0.17"/><circle cx="1314.3" cy="430.4" r="0.78" fill="#a585cf" opacity="0.20"/><circle cx="439.9" cy="709.0" r="1.04" fill="#ece5d6" opacity="0.60"/><circle cx="1324.3" cy="179.6" r="1.73" fill="#e9e2d3" opacity="0.63"/><circle cx="253.0" cy="209.1" r="1.87" fill="#e9e2d3" opacity="0.36"/><circle cx="1565.6" cy="427.5" r="1.32" fill="#e9e2d3" opacity="0.72"/><circle cx="706.2" cy="229.9" r="1.43" fill="#c4a9e0" opacity="0.83"/><circle cx="1134.7" cy="634.2" r="1.14" fill="#a585cf" opacity="0.34"/><circle cx="331.4" cy="759.4" r="0.86" fill="#e9e2d3" opacity="0.68"/><circle cx="362.3" cy="550.9" r="1.81" fill="#c4a9e0" opacity="0.66"/><circle cx="65.8" cy="56.7" r="1.23" fill="#a585cf" opacity="0.56"/><circle cx="278.9" cy="103.1" r="1.34" fill="#c4a9e0" opacity="0.24"/><circle cx="235.5" cy="511.8" r="1.68" fill="#ece5d6" opacity="0.22"/><circle cx="1586.6" cy="397.5" r="0.79" fill="#a585cf" opacity="0.59"/><circle cx="1387.1" cy="132.1" r="0.46" fill="#a585cf" opacity="0.22"/><circle cx="1334.1" cy="518.5" r="0.80" fill="#c4a9e0" opacity="0.71"/><circle cx="1225.8" cy="129.6" r="1.68" fill="#c4a9e0" opacity="0.67"/><circle cx="1144.1" cy="946.7" r="1.06" fill="#c4a9e0" opacity="0.53"/><circle cx="852.9" cy="699.7" r="0.73" fill="#e9e2d3" opacity="0.58"/><circle cx="1322.2" cy="666.4" r="0.98" fill="#a585cf" opacity="0.25"/><circle cx="1558.6" cy="505.8" r="0.78" fill="#c4a9e0" opacity="0.35"/><circle cx="1296.9" cy="443.5" r="0.88" fill="#e9e2d3" opacity="0.21"/><circle cx="596.2" cy="701.2" r="0.68" fill="#e9e2d3" opacity="0.82"/><circle cx="848.2" cy="735.0" r="0.60" fill="#ece5d6" opacity="0.71"/><circle cx="1390.5" cy="313.4" r="1.46" fill="#e9e2d3" opacity="0.70"/><circle cx="481.9" cy="94.9" r="0.88" fill="#ece5d6" opacity="0.17"/><circle cx="566.7" cy="382.3" r="1.06" fill="#e9e2d3" opacity="0.67"/><circle cx="866.8" cy="191.9" r="0.44" fill="#c4a9e0" opacity="0.50"/><circle cx="165.9" cy="405.5" r="0.77" fill="#e9e2d3" opacity="0.77"/><circle cx="703.7" cy="432.5" r="1.62" fill="#ece5d6" opacity="0.74"/><circle cx="462.8" cy="87.8" r="0.31" fill="#ece5d6" opacity="0.40"/><circle cx="436.5" cy="506.8" r="1.16" fill="#e9e2d3" opacity="0.71"/><circle cx="461.6" cy="261.3" r="1.46" fill="#ece5d6" opacity="0.16"/><circle cx="623.1" cy="537.9" r="1.04" fill="#e9e2d3" opacity="0.43"/><circle cx="1354.4" cy="210.1" r="1.23" fill="#e9e2d3" opacity="0.50"/><circle cx="357.5" cy="638.2" r="0.72" fill="#ece5d6" opacity="0.43"/><circle cx="1131.9" cy="968.5" r="1.36" fill="#ece5d6" opacity="0.24"/><circle cx="1189.1" cy="804.6" r="1.07" fill="#ece5d6" opacity="0.42"/><circle cx="161.5" cy="82.5" r="1.31" fill="#ece5d6" opacity="0.38"/><circle cx="720.0" cy="330.6" r="0.94" fill="#c4a9e0" opacity="0.32"/><circle cx="735.8" cy="200.0" r="1.36" fill="#a585cf" opacity="0.37"/><circle cx="1113.5" cy="447.7" r="1.29" fill="#a585cf" opacity="0.27"/><circle cx="894.4" cy="819.7" r="1.73" fill="#c4a9e0" opacity="0.51"/><circle cx="296.7" cy="49.3" r="0.39" fill="#e9e2d3" opacity="0.60"/><circle cx="148.3" cy="376.9" r="0.72" fill="#ece5d6" opacity="0.70"/><circle cx="238.5" cy="824.2" r="1.30" fill="#a585cf" opacity="0.61"/><circle cx="350.9" cy="835.0" r="1.82" fill="#e9e2d3" opacity="0.37"/><circle cx="375.4" cy="296.0" r="1.24" fill="#a585cf" opacity="0.85"/><circle cx="180.7" cy="592.8" r="0.93" fill="#e9e2d3" opacity="0.49"/><circle cx="375.7" cy="82.7" r="1.48" fill="#ece5d6" opacity="0.15"/><circle cx="714.1" cy="341.1" r="1.34" fill="#e9e2d3" opacity="0.75"/><circle cx="1315.7" cy="406.4" r="1.47" fill="#c4a9e0" opacity="0.16"/><circle cx="1434.1" cy="522.5" r="0.55" fill="#ece5d6" opacity="0.29"/><circle cx="1193.1" cy="562.2" r="0.77" fill="#e9e2d3" opacity="0.64"/><circle cx="250.4" cy="383.9" r="0.47" fill="#ece5d6" opacity="0.76"/><circle cx="605.4" cy="87.8" r="1.46" fill="#a585cf" opacity="0.67"/><circle cx="1.9" cy="96.8" r="1.45" fill="#ece5d6" opacity="0.84"/><circle cx="1188.9" cy="333.1" r="0.56" fill="#c4a9e0" opacity="0.18"/><circle cx="1120.3" cy="51.4" r="1.33" fill="#c4a9e0" opacity="0.47"/><circle cx="595.4" cy="834.6" r="1.69" fill="#e9e2d3" opacity="0.50"/><circle cx="996.7" cy="616.3" r="1.62" fill="#ece5d6" opacity="0.43"/><circle cx="1355.5" cy="632.1" r="1.83" fill="#c4a9e0" opacity="0.30"/><circle cx="1221.4" cy="638.7" r="1.10" fill="#c4a9e0" opacity="0.44"/><circle cx="1388.0" cy="155.5" r="1.49" fill="#c4a9e0" opacity="0.82"/><circle cx="64.2" cy="357.3" r="0.38" fill="#e9e2d3" opacity="0.29"/><circle cx="1020.8" cy="98.3" r="1.22" fill="#c4a9e0" opacity="0.27"/><circle cx="263.0" cy="952.5" r="0.47" fill="#e9e2d3" opacity="0.78"/><circle cx="607.3" cy="879.1" r="1.63" fill="#e9e2d3" opacity="0.55"/><circle cx="191.9" cy="71.0" r="1.65" fill="#ece5d6" opacity="0.74"/><circle cx="666.0" cy="567.5" r="1.04" fill="#ece5d6" opacity="0.21"/><circle cx="1083.7" cy="175.8" r="0.62" fill="#a585cf" opacity="0.78"/><circle cx="665.4" cy="278.5" r="1.57" fill="#ece5d6" opacity="0.45"/><circle cx="430.4" cy="513.1" r="0.42" fill="#a585cf" opacity="0.17"/><circle cx="837.7" cy="21.3" r="1.25" fill="#a585cf" opacity="0.52"/><circle cx="548.7" cy="15.3" r="0.70" fill="#c4a9e0" opacity="0.20"/><circle cx="255.8" cy="152.9" r="1.64" fill="#ece5d6" opacity="0.69"/><circle cx="188.0" cy="537.9" r="0.85" fill="#c4a9e0" opacity="0.38"/><circle cx="1532.6" cy="383.6" r="0.61" fill="#e9e2d3" opacity="0.80"/><circle cx="465.1" cy="925.4" r="0.64" fill="#a585cf" opacity="0.52"/><circle cx="515.7" cy="681.4" r="0.73" fill="#c4a9e0" opacity="0.34"/><circle cx="1284.3" cy="705.7" r="1.59" fill="#ece5d6" opacity="0.77"/><circle cx="1191.5" cy="903.1" r="0.55" fill="#ece5d6" opacity="0.74"/><circle cx="566.6" cy="413.7" r="1.89" fill="#c4a9e0" opacity="0.56"/><circle cx="469.9" cy="181.8" r="1.08" fill="#ece5d6" opacity="0.22"/><circle cx="1211.5" cy="912.3" r="0.60" fill="#e9e2d3" opacity="0.51"/><circle cx="738.0" cy="163.3" r="1.53" fill="#c4a9e0" opacity="0.39"/><circle cx="1481.0" cy="120.7" r="1.53" fill="#e9e2d3" opacity="0.76"/><circle cx="352.9" cy="403.1" r="1.67" fill="#e9e2d3" opacity="0.76"/><circle cx="549.7" cy="213.9" r="1.81" fill="#c4a9e0" opacity="0.19"/><circle cx="339.1" cy="398.1" r="0.63" fill="#a585cf" opacity="0.23"/><circle cx="33.2" cy="316.4" r="0.86" fill="#ece5d6" opacity="0.33"/><circle cx="678.8" cy="500.8" r="1.60" fill="#a585cf" opacity="0.31"/><circle cx="1041.5" cy="126.3" r="1.86" fill="#c4a9e0" opacity="0.57"/><circle cx="212.9" cy="865.7" r="0.60" fill="#e9e2d3" opacity="0.34"/><circle cx="576.9" cy="780.4" r="1.06" fill="#ece5d6" opacity="0.49"/><circle cx="1254.2" cy="706.9" r="1.70" fill="#e9e2d3" opacity="0.75"/><circle cx="228.5" cy="91.7" r="1.28" fill="#a585cf" opacity="0.70"/><circle cx="1141.9" cy="840.3" r="1.76" fill="#c4a9e0" opacity="0.37"/><circle cx="1379.8" cy="679.1" r="0.57" fill="#c4a9e0" opacity="0.58"/><circle cx="1021.2" cy="90.3" r="1.08" fill="#a585cf" opacity="0.81"/><circle cx="27.5" cy="798.1" r="0.99" fill="#e9e2d3" opacity="0.29"/><circle cx="138.3" cy="868.8" r="0.43" fill="#c4a9e0" opacity="0.30"/><circle cx="462.0" cy="132.7" r="1.10" fill="#e9e2d3" opacity="0.59"/><circle cx="776.2" cy="356.7" r="1.73" fill="#a585cf" opacity="0.56"/><circle cx="511.8" cy="351.3" r="0.51" fill="#a585cf" opacity="0.71"/><circle cx="989.0" cy="473.1" r="0.60" fill="#e9e2d3" opacity="0.78"/><circle cx="1319.9" cy="310.9" r="1.83" fill="#c4a9e0" opacity="0.47"/><circle cx="620.0" cy="377.8" r="0.79" fill="#c4a9e0" opacity="0.63"/><circle cx="829.8" cy="435.3" r="1.31" fill="#c4a9e0" opacity="0.53"/><circle cx="1140.9" cy="844.4" r="1.45" fill="#ece5d6" opacity="0.53"/><circle cx="152.0" cy="782.1" r="1.62" fill="#e9e2d3" opacity="0.49"/><circle cx="597.1" cy="865.2" r="1.22" fill="#c4a9e0" opacity="0.59"/><circle cx="1557.9" cy="965.2" r="1.18" fill="#ece5d6" opacity="0.50"/><circle cx="1401.8" cy="924.7" r="1.54" fill="#e9e2d3" opacity="0.60"/><circle cx="1550.0" cy="251.7" r="0.97" fill="#e9e2d3" opacity="0.44"/><circle cx="311.0" cy="725.2" r="1.33" fill="#ece5d6" opacity="0.59"/><circle cx="1120.5" cy="649.3" r="0.32" fill="#a585cf" opacity="0.54"/><circle cx="1206.8" cy="418.4" r="1.10" fill="#a585cf" opacity="0.41"/><circle cx="1367.6" cy="280.1" r="1.08" fill="#a585cf" opacity="0.27"/><circle cx="24.1" cy="142.3" r="1.15" fill="#ece5d6" opacity="0.15"/><circle cx="1304.7" cy="82.1" r="0.32" fill="#c4a9e0" opacity="0.70"/><circle cx="747.6" cy="223.5" r="1.84" fill="#e9e2d3" opacity="0.59"/><circle cx="187.9" cy="548.6" r="0.69" fill="#c4a9e0" opacity="0.83"/><circle cx="134.2" cy="327.3" r="1.45" fill="#c4a9e0" opacity="0.28"/><circle cx="393.5" cy="910.8" r="1.59" fill="#a585cf" opacity="0.68"/><circle cx="531.4" cy="652.9" r="0.73" fill="#e9e2d3" opacity="0.28"/><circle cx="438.1" cy="632.8" r="0.59" fill="#e9e2d3" opacity="0.76"/><circle cx="427.5" cy="112.8" r="0.92" fill="#c4a9e0" opacity="0.55"/><circle cx="1091.8" cy="980.0" r="0.54" fill="#a585cf" opacity="0.79"/><circle cx="1198.3" cy="487.9" r="1.14" fill="#ece5d6" opacity="0.63"/><circle cx="320.0" cy="157.3" r="0.33" fill="#ece5d6" opacity="0.65"/><circle cx="192.4" cy="169.2" r="0.35" fill="#a585cf" opacity="0.32"/><circle cx="881.7" cy="922.0" r="0.56" fill="#e9e2d3" opacity="0.70"/><circle cx="1334.7" cy="422.7" r="0.43" fill="#e9e2d3" opacity="0.72"/><circle cx="76.8" cy="103.2" r="0.43" fill="#a585cf" opacity="0.70"/><circle cx="904.6" cy="740.9" r="1.59" fill="#a585cf" opacity="0.66"/><circle cx="1099.7" cy="95.7" r="0.63" fill="#e9e2d3" opacity="0.19"/><circle cx="1425.0" cy="401.6" r="1.89" fill="#ece5d6" opacity="0.66"/><circle cx="446.7" cy="757.2" r="0.97" fill="#e9e2d3" opacity="0.80"/><circle cx="1308.1" cy="882.8" r="0.57" fill="#ece5d6" opacity="0.16"/><circle cx="1227.5" cy="509.8" r="1.25" fill="#e9e2d3" opacity="0.34"/><circle cx="1101.8" cy="607.5" r="1.23" fill="#a585cf" opacity="0.61"/><circle cx="1043.0" cy="995.4" r="0.33" fill="#c4a9e0" opacity="0.39"/><circle cx="423.2" cy="887.4" r="1.78" fill="#c4a9e0" opacity="0.32"/><circle cx="1101.9" cy="435.2" r="0.98" fill="#ece5d6" opacity="0.36"/><circle cx="556.1" cy="290.2" r="1.57" fill="#e9e2d3" opacity="0.20"/><circle cx="88.0" cy="502.4" r="0.43" fill="#ece5d6" opacity="0.35"/><circle cx="1117.4" cy="888.2" r="1.89" fill="#ece5d6" opacity="0.60"/><circle cx="511.1" cy="530.3" r="0.58" fill="#a585cf" opacity="0.18"/><circle cx="982.7" cy="802.0" r="0.93" fill="#ece5d6" opacity="0.32"/><circle cx="408.3" cy="583.3" r="0.64" fill="#e9e2d3" opacity="0.83"/><circle cx="1195.0" cy="832.9" r="0.74" fill="#a585cf" opacity="0.19"/><circle cx="596.1" cy="436.4" r="1.38" fill="#c4a9e0" opacity="0.77"/><circle cx="809.5" cy="265.0" r="0.60" fill="#ece5d6" opacity="0.23"/><circle cx="1186.1" cy="582.3" r="0.38" fill="#a585cf" opacity="0.36"/><circle cx="638.2" cy="986.8" r="1.73" fill="#c4a9e0" opacity="0.27"/><circle cx="1271.2" cy="889.2" r="1.13" fill="#c4a9e0" opacity="0.76"/><circle cx="583.3" cy="12.8" r="0.55" fill="#ece5d6" opacity="0.28"/><circle cx="1008.0" cy="898.3" r="1.16" fill="#e9e2d3" opacity="0.56"/><circle cx="1254.7" cy="730.4" r="1.85" fill="#e9e2d3" opacity="0.18"/><circle cx="451.5" cy="210.3" r="0.99" fill="#ece5d6" opacity="0.43"/><circle cx="538.1" cy="69.1" r="1.36" fill="#a585cf" opacity="0.63"/><circle cx="416.1" cy="503.9" r="0.62" fill="#e9e2d3" opacity="0.45"/><circle cx="365.3" cy="43.8" r="1.10" fill="#ece5d6" opacity="0.15"/><circle cx="900.9" cy="264.2" r="1.01" fill="#ece5d6" opacity="0.21"/><circle cx="895.1" cy="848.6" r="1.25" fill="#c4a9e0" opacity="0.23"/><circle cx="346.6" cy="466.0" r="1.71" fill="#c4a9e0" opacity="0.28"/><circle cx="1107.0" cy="357.2" r="0.80" fill="#e9e2d3" opacity="0.17"/><circle cx="147.2" cy="811.1" r="0.33" fill="#a585cf" opacity="0.58"/><circle cx="76.9" cy="473.1" r="0.39" fill="#e9e2d3" opacity="0.31"/><circle cx="1441.6" cy="199.2" r="1.44" fill="#a585cf" opacity="0.48"/><circle cx="925.0" cy="565.3" r="1.05" fill="#ece5d6" opacity="0.43"/><circle cx="214.0" cy="690.0" r="0.73" fill="#e9e2d3" opacity="0.72"/><circle cx="161.3" cy="833.8" r="0.45" fill="#ece5d6" opacity="0.69"/><circle cx="788.9" cy="495.2" r="0.73" fill="#ece5d6" opacity="0.24"/><circle cx="235.8" cy="526.4" r="1.18" fill="#c4a9e0" opacity="0.54"/><circle cx="669.8" cy="92.3" r="1.72" fill="#c4a9e0" opacity="0.28"/><circle cx="1573.8" cy="568.1" r="0.45" fill="#e9e2d3" opacity="0.19"/><circle cx="826.4" cy="588.6" r="1.05" fill="#a585cf" opacity="0.46"/><circle cx="808.7" cy="220.8" r="0.88" fill="#ece5d6" opacity="0.68"/><circle cx="802.6" cy="163.9" r="1.00" fill="#ece5d6" opacity="0.22"/><circle cx="1051.3" cy="306.1" r="0.56" fill="#a585cf" opacity="0.65"/><circle cx="284.0" cy="660.9" r="1.78" fill="#e9e2d3" opacity="0.66"/><circle cx="1520.9" cy="838.3" r="1.08" fill="#a585cf" opacity="0.28"/><circle cx="483.0" cy="413.6" r="0.32" fill="#c4a9e0" opacity="0.85"/><circle cx="1504.9" cy="438.7" r="0.97" fill="#ece5d6" opacity="0.32"/><circle cx="376.1" cy="537.8" r="0.80" fill="#a585cf" opacity="0.70"/><circle cx="931.4" cy="408.8" r="0.52" fill="#e9e2d3" opacity="0.58"/><circle cx="376.7" cy="670.0" r="0.58" fill="#ece5d6" opacity="0.29"/><circle cx="1562.2" cy="613.4" r="1.13" fill="#c4a9e0" opacity="0.49"/><circle cx="469.8" cy="61.1" r="0.44" fill="#e9e2d3" opacity="0.19"/><circle cx="620.6" cy="629.2" r="0.46" fill="#c4a9e0" opacity="0.20"/><circle cx="1459.1" cy="111.3" r="0.51" fill="#c4a9e0" opacity="0.44"/><circle cx="616.2" cy="493.2" r="1.84" fill="#c4a9e0" opacity="0.33"/><circle cx="435.2" cy="984.2" r="1.84" fill="#c4a9e0" opacity="0.73"/><circle cx="1213.0" cy="778.9" r="1.52" fill="#c4a9e0" opacity="0.60"/><circle cx="1189.5" cy="909.2" r="1.43" fill="#a585cf" opacity="0.42"/>
<circle cx="1376.0" cy="557.6" r="2.82" fill="#ffffff" opacity="0.40"/><circle cx="495.7" cy="192.0" r="0.59" fill="#ffffff" opacity="0.29"/><circle cx="1091.6" cy="945.8" r="0.46" fill="#ffffff" opacity="0.44"/><circle cx="748.6" cy="445.3" r="1.60" fill="#e9e2d3" opacity="0.25"/><circle cx="1596.2" cy="246.2" r="2.47" fill="#ffffff" opacity="0.61"/><circle cx="389.6" cy="375.3" r="1.00" fill="#e9e2d3" opacity="0.62"/><circle cx="792.1" cy="173.6" r="1.04" fill="#ffffff" opacity="0.35"/><circle cx="1433.3" cy="412.5" r="2.15" fill="#e9e2d3" opacity="0.55"/><circle cx="1165.3" cy="54.7" r="0.84" fill="#e9e2d3" opacity="0.63"/><circle cx="156.5" cy="245.2" r="0.37" fill="#e9e2d3" opacity="0.25"/><circle cx="617.2" cy="996.5" r="1.93" fill="#e9e2d3" opacity="0.52"/><circle cx="1574.6" cy="588.0" r="2.28" fill="#ffffff" opacity="0.41"/><circle cx="39.6" cy="357.4" r="1.85" fill="#e9e2d3" opacity="0.81"/><circle cx="1101.1" cy="540.6" r="2.46" fill="#ffffff" opacity="0.42"/><circle cx="1456.2" cy="315.7" r="0.32" fill="#e9e2d3" opacity="0.69"/><circle cx="1425.0" cy="604.7" r="2.87" fill="#ffffff" opacity="0.21"/><circle cx="974.6" cy="631.1" r="1.56" fill="#e9e2d3" opacity="0.25"/><circle cx="383.2" cy="402.9" r="2.04" fill="#ffffff" opacity="0.18"/><circle cx="1177.5" cy="209.1" r="2.25" fill="#ffffff" opacity="0.29"/><circle cx="405.0" cy="213.4" r="2.00" fill="#ffffff" opacity="0.83"/><circle cx="313.6" cy="679.2" r="2.03" fill="#ffffff" opacity="0.28"/><circle cx="1542.3" cy="978.0" r="2.04" fill="#e9e2d3" opacity="0.29"/><circle cx="16.9" cy="980.3" r="1.42" fill="#ffffff" opacity="0.75"/><circle cx="50.4" cy="93.0" r="1.14" fill="#e9e2d3" opacity="0.28"/><circle cx="1579.8" cy="442.5" r="1.62" fill="#ffffff" opacity="0.64"/><circle cx="967.0" cy="656.9" r="1.81" fill="#e9e2d3" opacity="0.67"/><circle cx="304.8" cy="121.3" r="1.52" fill="#e9e2d3" opacity="0.29"/><circle cx="1333.9" cy="196.5" r="2.39" fill="#ffffff" opacity="0.35"/><circle cx="432.1" cy="473.0" r="1.35" fill="#e9e2d3" opacity="0.49"/><circle cx="1078.6" cy="227.1" r="1.41" fill="#e9e2d3" opacity="0.52"/><circle cx="778.0" cy="914.8" r="0.69" fill="#ffffff" opacity="0.76"/><circle cx="711.5" cy="574.4" r="1.79" fill="#ffffff" opacity="0.69"/><circle cx="844.8" cy="468.2" r="1.67" fill="#ffffff" opacity="0.77"/><circle cx="801.5" cy="540.5" r="2.71" fill="#e9e2d3" opacity="0.80"/><circle cx="536.5" cy="754.3" r="1.22" fill="#ffffff" opacity="0.45"/><circle cx="541.4" cy="610.5" r="0.86" fill="#ffffff" opacity="0.62"/><circle cx="538.8" cy="510.4" r="0.71" fill="#ffffff" opacity="0.63"/><circle cx="495.4" cy="386.0" r="1.10" fill="#e9e2d3" opacity="0.76"/><circle cx="1075.5" cy="236.5" r="1.08" fill="#ffffff" opacity="0.46"/><circle cx="1237.3" cy="112.4" r="1.21" fill="#e9e2d3" opacity="0.54"/><circle cx="80.3" cy="179.6" r="1.06" fill="#e9e2d3" opacity="0.79"/><circle cx="406.4" cy="828.6" r="1.87" fill="#e9e2d3" opacity="0.82"/><circle cx="181.1" cy="752.6" r="1.45" fill="#ffffff" opacity="0.52"/><circle cx="1138.5" cy="427.6" r="1.11" fill="#ffffff" opacity="0.61"/><circle cx="1597.8" cy="603.3" r="0.51" fill="#e9e2d3" opacity="0.77"/><circle cx="782.9" cy="25.7" r="0.91" fill="#e9e2d3" opacity="0.58"/><circle cx="500.3" cy="565.3" r="0.73" fill="#e9e2d3" opacity="0.18"/><circle cx="1224.6" cy="842.4" r="2.87" fill="#ffffff" opacity="0.42"/><circle cx="1231.9" cy="81.2" r="1.46" fill="#e9e2d3" opacity="0.20"/><circle cx="467.2" cy="133.4" r="2.85" fill="#ffffff" opacity="0.61"/><circle cx="620.1" cy="119.9" r="2.32" fill="#e9e2d3" opacity="0.79"/><circle cx="214.2" cy="823.3" r="2.84" fill="#ffffff" opacity="0.29"/><circle cx="423.2" cy="489.3" r="0.51" fill="#ffffff" opacity="0.46"/><circle cx="1404.5" cy="711.0" r="2.87" fill="#e9e2d3" opacity="0.61"/><circle cx="49.6" cy="462.6" r="2.12" fill="#ffffff" opacity="0.35"/><circle cx="1201.5" cy="626.0" r="1.05" fill="#ffffff" opacity="0.81"/><circle cx="1494.0" cy="534.8" r="1.19" fill="#ffffff" opacity="0.16"/><circle cx="613.2" cy="700.0" r="2.42" fill="#ffffff" opacity="0.45"/><circle cx="1320.3" cy="712.5" r="2.01" fill="#e9e2d3" opacity="0.41"/><circle cx="24.2" cy="510.6" r="2.87" fill="#e9e2d3" opacity="0.79"/>
</svg>