<svg xmlns="http://www.w3.org/2000/svg" width="1600" height="1000" viewBox="0 0 1600 1000">
<defs>
<radialGradient id="glow" cx="62%" cy="32%" r="60%">
  <stop offset="0%" stop-color="#4a3568" stop-opacity="0.85"/>
  <stop offset="38%" stop-color="#241834" stop-opacity="0.5"/>
  <stop offset="100%" stop-color="#0c0812" stop-opacity="0"/>
</radialGradient>
<linearGradient id="floor" x1="0" y1="0" x2="0" y2="1">
  <stop offset="0%" stop-color="#0e0a14" stop-opacity="0"/>
  <stop offset="100%" stop-color="#080510" stop-opacity="0.95"/>
</linearGradient>
</defs>
<rect width="1600" height="1000" fill="#0d0913"/>
<rect width="1600" height="1000" fill="url(#glow)"/>
<circle cx="1307.9" cy="723.2" r="0.44" fill="#7c5fa6" opacity="0.73"/><circle cx="328.6" cy="714.4" r="1.05" fill="#e9e2d3" opacity="0.51"/><circle cx="1109.8" cy="570.6" r="0.54" fill="#7c5fa6" opacity="0.27"/><circle cx="1511.4" cy="444.8" r="1.56" fill="#e9e2d3" opacity="0.67"/><circle cx="1321.5" cy="24.2" r="0.69" fill="#c4a9e0" opacity="0.66"/><circle cx="528.8" cy="248.0" r="1.35" fill="#7c5fa6" opacity="0.16"/><circle cx="1511.0" cy="559.6" r="1.12" fill="#e9e2d3" opacity="0.33"/><circle cx="510.0" cy="396.5" r="1.09" fill="#e9e2d3" opacity="0.51"/><circle cx="560.2" cy="945.7" r="0.71" fill="#7c5fa6" opacity="0.34"/><circle cx="1250.7" cy="539.8" r="1.13" fill="#c4a9e0" opacity="0.40"/><circle cx="669.5" cy="781.0" r="0.56" fill="#7c5fa6" opacity="0.40"/><circle cx="316.6" cy="995.0" r="0.46" fill="#e9e2d3" opacity="0.72"/><circle cx="690.8" cy="668.9" r="0.91" fill="#7c5fa6" opacity="0.36"/><circle cx="903.9" cy="331.7" r="1.26" fill="#7c5fa6" opacity="0.28"/><circle cx="1245.0" cy="678.9" r="1.00" fill="#c4a9e0" opacity="0.25"/><circle cx="1579.8" cy="808.1" r="0.71" fill="#c4a9e0" opacity="0.75"/><circle cx="1271.5" cy="445.8" r="0.70" fill="#c4a9e0" opacity="0.57"/><circle cx="1019.4" cy="510.1" r="1.25" fill="#7c5fa6" opacity="0.28"/><circle cx="588.0" cy="63.5" r="0.57" fill="#e9e2d3" opacity="0.64"/><circle cx="535.9" cy="414.7" r="0.65" fill="#e9e2d3" opacity="0.49"/><circle cx="139.6" cy="178.6" r="1.31" fill="#c4a9e0" opacity="0.62"/><circle cx="1279.7" cy="838.2" r="0.66" fill="#e9e2d3" opacity="0.69"/><circle cx="1203.4" cy="613.1" r="1.20" fill="#7c5fa6" opacity="0.79"/><circle cx="1550.9" cy="489.1" r="1.25" fill="#e9e2d3" opacity="0.50"/><circle cx="292.6" cy="894.7" r="1.45" fill="#e9e2d3" opacity="0.77"/><circle cx="642.3" cy="315.4" r="1.16" fill="#c4a9e0" opacity="0.24"/><circle cx="735.1" cy="56.6" r="0.98" fill="#c4a9e0" opacity="0.16"/><circle cx="1005.1" cy="153.1" r="0.32" fill="#c4a9e0" opacity="0.69"/><circle cx="1388.5" cy="108.3" r="1.02" fill="#e9e2d3" opacity="0.82"/><circle cx="1091.7" cy="40.4" r="1.47" fill="#e9e2d3" opacity="0.54"/><circle cx="205.1" cy="783.6" r="0.99" fill="#7c5fa6" opacity="0.22"/><circle cx="1277.3" cy="295.6" r="1.35" fill="#7c5fa6" opacity="0.51"/><circle cx="41.5" cy="64.6" r="1.15" fill="#c4a9e0" opacity="0.20"/><circle cx="1299.8" cy="74.2" r="0.54" fill="#c4a9e0" opacity="0.16"/><circle cx="951.2" cy="174.2" r="1.28" fill="#e9e2d3" opacity="0.83"/><circle cx="1277.0" cy="971.7" r="1.33" fill="#c4a9e0" opacity="0.48"/><circle cx="307.1" cy="221.8" r="1.07" fill="#7c5fa6" opacity="0.51"/><circle cx="1273.5" cy="44.2" r="1.00" fill="#7c5fa6" opacity="0.35"/><circle cx="464.1" cy="410.0" r="0.34" fill="#c4a9e0" opacity="0.71"/><circle cx="31.3" cy="410.2" r="1.14" fill="#7c5fa6" opacity="0.80"/><circle cx="409.7" cy="600.0" r="1.04" fill="#7c5fa6" opacity="0.61"/><circle cx="923.6" cy="164.3" r="1.03" fill="#e9e2d3" opacity="0.67"/><circle cx="187.3" cy="953.8" r="1.56" fill="#7c5fa6" opacity="0.35"/><circle cx="161.4" cy="503.1" r="0.70" fill="#e9e2d3" opacity="0.31"/><circle cx="1544.8" cy="233.8" r="0.72" fill="#c4a9e0" opacity="0.55"/><circle cx="389.8" cy="312.0" r="0.36" fill="#c4a9e0" opacity="0.81"/><circle cx="954.6" cy="395.7" r="1.04" fill="#e9e2d3" opacity="0.57"/><circle cx="1275.2" cy="520.2" r="0.66" fill="#7c5fa6" opacity="0.18"/><circle cx="1430.3" cy="368.2" r="1.59" fill="#e9e2d3" opacity="0.59"/><circle cx="944.9" cy="530.1" r="0.75" fill="#c4a9e0" opacity="0.55"/><circle cx="271.3" cy="119.6" r="0.94" fill="#c4a9e0" opacity="0.64"/><circle cx="170.6" cy="137.4" r="0.83" fill="#e9e2d3" opacity="0.33"/><circle cx="885.2" cy="382.9" r="0.91" fill="#c4a9e0" opacity="0.82"/><circle cx="320.3" cy="568.9" r="0.62" fill="#7c5fa6" opacity="0.69"/><circle cx="763.9" cy="113.1" r="0.87" fill="#c4a9e0" opacity="0.35"/><circle cx="552.1" cy="438.7" r="1.17" fill="#e9e2d3" opacity="0.85"/><circle cx="1246.2" cy="440.8" r="0.79" fill="#e9e2d3" opacity="0.61"/><circle cx="1230.0" cy="336.8" r="0.48" fill="#c4a9e0" opacity="0.55"/><circle cx="550.0" cy="30.6" r="1.36" fill="#7c5fa6" opacity="0.27"/><circle cx="930.6" cy="356.0" r="1.38" fill="#7c5fa6" opacity="0.33"/><circle cx="401.4" cy="906.3" r="0.96" fill="#7c5fa6" opacity="0.66"/><circle cx="750.0" cy="369.0" r="1.36" fill="#7c5fa6" opacity="0.54"/><circle cx="1529.2" cy="932.9" r="1.53" fill="#7c5fa6" opacity="0.84"/><circle cx="563.7" cy="524.2" r="0.73" fill="#7c5fa6" opacity="0.33"/><circle cx="341.9" cy="646.5" r="1.32" fill="#e9e2d3" opacity="0.45"/><circle cx="1505.6" cy="853.6" r="0.49" fill="#7c5fa6" opacity="0.44"/><circle cx="1377.5" cy="167.8" r="0.87" fill="#7c5fa6" opacity="0.35"/><circle cx="1545.9" cy="984.0" r="0.86" fill="#7c5fa6" opacity="0.23"/><circle cx="1092.9" cy="21.7" r="0.45" fill="#e9e2d3" opacity="0.20"/><circle cx="608.7" cy="97.0" r="1.48" fill="#c4a9e0" opacity="0.42"/><circle cx="772.2" cy="142.0" r="0.87" fill="#e9e2d3" opacity="0.70"/><circle cx="483.4" cy="55.2" r="1.32" fill="#e9e2d3" opacity="0.58"/><circle cx="183.4" cy="86.0" r="0.91" fill="#7c5fa6" opacity="0.59"/><circle cx="683.7" cy="689.5" r="1.55" fill="#e9e2d3" opacity="0.80"/><circle cx="1175.3" cy="274.0" r="1.46" fill="#7c5fa6" opacity="0.24"/><circle cx="1382.7" cy="913.1" r="0.83" fill="#c4a9e0" opacity="0.27"/><circle cx="1164.9" cy="233.4" r="0.99" fill="#7c5fa6" opacity="0.74"/><circle cx="227.4" cy="858.0" r="1.15" fill="#e9e2d3" opacity="0.32"/><circle cx="61.6" cy="790.4" r="1.40" fill="#e9e2d3" opacity="0.61"/><circle cx="347.0" cy="975.7" r="1.39" fill="#e9e2d3" opacity="0.61"/><circle cx="615.6" cy="615.4" r="0.57" fill="#c4a9e0" opacity="0.60"/><circle cx="1044.6" cy="731.5" r="0.50" fill="#c4a9e0" opacity="0.46"/><circle cx="1039.6" cy="923.3" r="1.11" fill="#e9e2d3" opacity="0.74"/><circle cx="1411.2" cy="783.6" r="1.59" fill="#e9e2d3" opacity="0.59"/><circle cx="723.2" cy="629.6" r="0.96" fill="#e9e2d3" opacity="0.45"/><circle cx="542.3" cy="241.4" r="0.40" fill="#e9e2d3" opacity="0.51"/><circle cx="1103.0" cy="745.0" r="0.68" fill="#e9e2d3" opacity="0.33"/><circle cx="192.2" cy="155.3" r="1.43" fill="#c4a9e0" opacity="0.48"/><circle cx="224.1" cy="715.7" r="0.58" fill="#e9e2d3" opacity="0.24"/><circle cx="900.7" cy="921.9" r="1.41" fill="#c4a9e0" opacity="0.82"/><circle cx="388.3" cy="511.6" r="0.40" fill="#7c5fa6" opacity="0.38"/><circle cx="141.0" cy="526.6" r="0.37" fill="#e9e2d3" opacity="0.83"/><circle cx="1282.0" cy="114.9" r="1.31" fill="#e9e2d3" opacity="0.28"/><circle cx="1093.1" cy="400.4" r="0.51" fill="#7c5fa6" opacity="0.54"/><circle cx="714.5" cy="447.4" r="0.83" fill="#c4a9e0" opacity="0.78"/><circle cx="312.7" cy="934.1" r="1.27" fill="#7c5fa6" opacity="0.58"/><circle cx="1289.5" cy="730.7" r="1.41" fill="#c4a9e0" opacity="0.42"/><circle cx="1382.3" cy="852.4" r="0.74" fill="#c4a9e0" opacity="0.42"/><circle cx="4.0" cy="552.0" r="1.12" fill="#c4a9e0" opacity="0.43"/><circle cx="614.9" cy="220.5" r="0.58" fill="#c4a9e0" opacity="0.76"/><circle cx="630.0" cy="977.0" r="0.70" fill="#7c5fa6" opacity="0.77"/><circle cx="381.7" cy="582.8" r="0.35" fill="#e9e2d3" opacity="0.21"/><circle cx="1351.3" cy="979.5" r="0.56" fill="#7c5fa6" opacity="0.37"/><circle cx="627.4" cy="143.4" r="0.80" fill="#c4a9e0" opacity="0.80"/><circle cx="966.4" cy="648.4" r="1.54" fill="#c4a9e0" opacity="0.43"/><circle cx="118.4" cy="783.3" r="1.09" fill="#e9e2d3" opacity="0.68"/><circle cx="411.5" cy="654.3" r="1.38" fill="#7c5fa6" opacity="0.52"/><circle cx="924.4" cy="165.1" r="0.36" fill="#e9e2d3" opacity="0.21"/><circle cx="183.4" cy="67.1" r="0.42" fill="#e9e2d3" opacity="0.54"/><circle cx="434.8" cy="227.9" r="1.33" fill="#7c5fa6" opacity="0.70"/><circle cx="1445.1" cy="158.4" r="1.55" fill="#7c5fa6" opacity="0.28"/><circle cx="727.0" cy="291.5" r="1.38" fill="#c4a9e0" opacity="0.81"/><circle cx="400.4" cy="699.1" r="0.33" fill="#e9e2d3" opacity="0.27"/><circle cx="573.7" cy="737.0" r="0.37" fill="#e9e2d3" opacity="0.17"/><circle cx="1572.4" cy="520.0" r="0.52" fill="#e9e2d3" opacity="0.82"/><circle cx="1269.6" cy="466.2" r="0.83" fill="#c4a9e0" opacity="0.68"/><circle cx="1184.7" cy="896.8" r="1.47" fill="#7c5fa6" opacity="0.35"/><circle cx="520.9" cy="150.0" r="1.26" fill="#c4a9e0" opacity="0.80"/><circle cx="784.7" cy="287.7" r="1.44" fill="#c4a9e0" opacity="0.55"/><circle cx="1263.0" cy="934.8" r="0.91" fill="#e9e2d3" opacity="0.39"/><circle cx="814.1" cy="908.1" r="0.44" fill="#7c5fa6" opacity="0.54"/><circle cx="454.2" cy="273.5" r="0.74" fill="#e9e2d3" opacity="0.67"/><circle cx="886.9" cy="915.6" r="0.83" fill="#e9e2d3" opacity="0.51"/><circle cx="1424.7" cy="815.8" r="0.38" fill="#c4a9e0" opacity="0.73"/><circle cx="696.4" cy="425.0" r="1.28" fill="#c4a9e0" opacity="0.24"/><circle cx="668.5" cy="198.3" r="1.31" fill="#7c5fa6" opacity="0.69"/><circle cx="155.6" cy="823.6" r="0.51" fill="#e9e2d3" opacity="0.82"/><circle cx="426.5" cy="889.5" r="0.73" fill="#c4a9e0" opacity="0.80"/><circle cx="1017.0" cy="121.4" r="0.73" fill="#e9e2d3" opacity="0.67"/><circle cx="654.2" cy="34.7" r="1.48" fill="#7c5fa6" opacity="0.61"/><circle cx="1279.1" cy="122.1" r="1.01" fill="#7c5fa6" opacity="0.70"/><circle cx="340.1" cy="728.5" r="1.10" fill="#e9e2d3" opacity="0.76"/><circle cx="899.6" cy="536.3" r="1.43" fill="#7c5fa6" opacity="0.28"/><circle cx="1398.3" cy="650.2" r="0.30" fill="#7c5fa6" opacity="0.47"/><circle cx="712.4" cy="582.4" r="0.67" fill="#7c5fa6" opacity="0.36"/><circle cx="761.7" cy="373.1" r="0.42" fill="#e9e2d3" opacity="0.48"/><circle cx="457.5" cy="972.3" r="1.50" fill="#e9e2d3" opacity="0.28"/><circle cx="805.9" cy="33.6" r="0.42" fill="#7c5fa6" opacity="0.15"/><circle cx="280.4" cy="173.1" r="0.61" fill="#7c5fa6" opacity="0.61"/><circle cx="530.9" cy="799.3" r="1.51" fill="#e9e2d3" opacity="0.16"/><circle cx="1086.9" cy="378.3" r="1.34" fill="#e9e2d3" opacity="0.83"/><circle cx="327.1" cy="297.4" r="1.19" fill="#7c5fa6" opacity="0.44"/><circle cx="473.5" cy="31.6" r="0.91" fill="#c4a9e0" opacity="0.68"/><circle cx="1553.0" cy="464.5" r="0.76" fill="#c4a9e0" opacity="0.54"/><circle cx="832.6" cy="992.5" r="0.80" fill="#e9e2d3" opacity="0.69"/><circle cx="1246.1" cy="847.5" r="1.01" fill="#7c5fa6" opacity="0.28"/><circle cx="1378.5" cy="212.9" r="0.88" fill="#c4a9e0" opacity="0.19"/><circle cx="1596.2" cy="489.6" r="0.95" fill="#7c5fa6" opacity="0.42"/><circle cx="17.1" cy="539.5" r="0.43" fill="#7c5fa6" opacity="0.22"/><circle cx="1446.9" cy="840.7" r="1.58" fill="#7c5fa6" opacity="0.76"/><circle cx="110.8" cy="929.1" r="1.29" fill="#7c5fa6" opacity="0.82"/><circle cx="538.9" cy="12.3" r="1.18" fill="#7c5fa6" opacity="0.29"/><circle cx="1321.5" cy="189.4" r="1.30" fill="#e9e2d3" opacity="0.78"/><circle cx="33.9" cy="36.9" r="0.31" fill="#7c5fa6" opacity="0.82"/><circle cx="1319.0" cy="404.4" r="0.46" fill="#c4a9e0" opacity="0.64"/><circle cx="1008.6" cy="393.1" r="0.93" fill="#e9e2d3" opacity="0.56"/><circle cx="672.6" cy="320.7" r="1.28" fill="#e9e2d3" opacity="0.58"/><circle cx="1426.5" cy="343.1" r="0.30" fill="#e9e2d3" opacity="0.20"/><circle cx="1089.2" cy="112.1" r="0.79" fill="#e9e2d3" opacity="0.73"/><circle cx="32.0" cy="694.1" r="0.50" fill="#c4a9e0" opacity="0.44"/><circle cx="639.7" cy="143.8" r="1.47" fill="#e9e2d3" opacity="0.29"/><circle cx="523.5" cy="724.2" r="0.48" fill="#c4a9e0" opacity="0.58"/><circle cx="1576.3" cy="703.7" r="1.19" fill="#c4a9e0" opacity="0.44"/><circle cx="696.3" cy="884.0" r="0.34" fill="#7c5fa6" opacity="0.50"/><circle cx="41.5" cy="307.9" r="0.41" fill="#c4a9e0" opacity="0.44"/><circle cx="546.4" cy="354.1" r="1.34" fill="#c4a9e0" opacity="0.57"/><circle cx="823.3" cy="984.0" r="0.61" fill="#7c5fa6" opacity="0.69"/><circle cx="509.4" cy="806.3" r="0.63" fill="#c4a9e0" opacity="0.37"/><circle cx="1205.8" cy="349.2" r="1.52" fill="#c4a9e0" opacity="0.31"/><circle cx="664.2" cy="684.7" r="0.44" fill="#e9e2d3" opacity="0.22"/><circle cx="134.4" cy="139.2" r="0.86" fill="#7c5fa6" opacity="0.61"/><circle cx="1594.1" cy="418.5" r="0.44" fill="#e9e2d3" opacity="0.19"/><circle cx="1009.1" cy="597.2" r="0.59" fill="#e9e2d3" opacity="0.59"/><circle cx="829.1" cy="918.9" r="0.38" fill="#7c5fa6" opacity="0.78"/><circle cx="388.2" cy="571.8" r="0.99" fill="#7c5fa6" opacity="0.73"/><circle cx="713.6" cy="254.5" r="1.60" fill="#c4a9e0" opacity="0.59"/><circle cx="543.8" cy="64.2" r="0.94" fill="#e9e2d3" opacity="0.47"/><circle cx="904.1" cy="594.4" r="0.70" fill="#7c5fa6" opacity="0.61"/><circle cx="73.1" cy="108.1" r="1.16" fill="#e9e2d3" opacity="0.66"/><circle cx="498.9" cy="802.2" r="0.67" fill="#e9e2d3" opacity="0.84"/>
<rect width="1600" height="1000" fill="url(#floor)"/>
</svg>